<?xml version="1.0" encoding="UTF-8"?>
<svg id="Layer_2" data-name="Layer 2" xmlns="http://www.w3.org/2000/svg" viewBox="0 0 36.86 34.11">
  <defs>
    <style>
      .cls-1 {
        fill: #fff;
      }
    </style>
  </defs>
  <g id="OBJECTS">
    <g>
      <path class="cls-1" d="M15.03,28.65c-1.51,0-2.73,1.22-2.73,2.73s1.22,2.73,2.73,2.73,2.73-1.22,2.73-2.73-1.22-2.73-2.73-2.73Z"/>
      <path class="cls-1" d="M28.67,28.65c-1.51,0-2.73,1.22-2.73,2.73s1.22,2.73,2.73,2.73,2.73-1.22,2.73-2.73-1.22-2.73-2.73-2.73Z"/>
      <path class="cls-1" d="M35.85,8.23c-.12-.03-.24-.05-.36-.05H8.91l-1.69-5.74h0C6.79,1,5.45,0,3.95,0H1.38C.63-.01,.01,.59,0,1.35c-.01,.75,.59,1.37,1.35,1.38,.01,0,.03,0,.04,0H3.95c.31,0,.57,.19,.65,.49l5.81,19.77c.51,1.74,2.12,2.94,3.93,2.94h14.98c1.84,0,3.46-1.24,3.95-3.02l3.54-13c.2-.73-.23-1.48-.96-1.68Zm-7.07,10.25h-5.44v5.73h-2.55v-5.73h-5.44v-2.45h5.44v-5.68h2.55v5.68h5.44v2.45Z"/>
    </g>
  </g>
</svg>