<?xml version="1.0" encoding="UTF-8"?>
<svg id="Layer_2" data-name="Layer 2" xmlns="http://www.w3.org/2000/svg" viewBox="0 0 81.86 83.79">
  <defs>
    <style>
      .cls-1 {
        fill: #fff;
        isolation: isolate;
      }
    </style>
  </defs>
  <g id="Layer_1-2" data-name="Layer 1">
    <path class="cls-1" d="M76.9,58.47c-2.32,3.38-6.86,14.07-.31,16.74,0,0,1.24,4.64,0,7.05-1.2,.83-7.76,.78-10.07,0-.1-3.37-1.24-6.04-1.24-6.04,0,0,5.22-3.42-1.13-11.09-5.73,3.69-11.97,2.59-13.93,1.63-1.87,5.03-3.62,8.06,2.37,10.21,.93,5.04,.11,6,.11,6-1.76,.67-7.17,1.34-10.32,.22-.32-2.64-1.51-4.67-2.37-5.83-.46-.62-.35-1.41,.26-1.92,1.78-1.5,4.64-5.19,1.75-12.07-8.31-1.75-8.78,8.29-4.54,11.18,.41,.83,.1,2.98,.1,2.98-.71,.6-5.53,.4-6.97-.13,.45-2.14-.4-3.86-1.59-4.78-.33-.26-.43-.66-.21-.99,4.61-7.08-1.44-11.15-1.44-11.15,0,0-7.54-2.26-15.48,3.11-7.84,5.3-2.38,10.83-2.38,10.83,0,0,.31,1.66-.21,2.93-3.72,.74-7.79,.13-9.29-.48-.05-3.51,1.19-5.35,1.19-5.35,0,0,1.97-2.55,1.97-4.17,0-1,.16-3.42,.28-5.12,.08-1.07,.77-2.04,1.84-2.61,1.24-.67,2.74-1.75,2.89-3.08,.26-2.33-2.63-4.08-.46-8.46,2.1-4.24,6.37-7.34,6.64-7.53-.55,.1-11.78,2.18-12.68-5.27-.92-7.62,11.97-9.33,15.9-8.59,3.71,.71,17.71,.67,12.63-6.6-.33-.48,.27-1.06,.84-.79,3.17,1.46,2.62,4.96,1.91,5.56,1.06-.82,1.76-1.79,2.21-2.67,.22-.43,1-.29,.97,.18-.18,3.43-2.8,6.49-7.31,7.48,.57,.36,1.76,.75,2.83,1.01,.52,.13,.49,.76-.05,.85-3.05,.53-6.26-.41-8.77-1.81,.89,1.03,.5,2.27,.07,3.08-.14,.26-.58,.21-.65-.06-.36-1.41-1.85-4.02-7.99-4.02-8.41,0-10.12,5.26-9.44,6.88,.67,1.62,5.62,4.82,12.44,1.62,6.81-3.2,14.04,3.38,22.39-2.85,3.09-2.29,5.75-3.64,8.04-4.41-1.26-1.21-2.83-2.49-3.5-2.95,.88-1.09,1.09-1.62-.31-3.59-1.4-1.98,2.99-3.6,4.64-4.47-1.91-.35-4.95-1.49-6.5-4.78-1.38-2.93,.59-7.42,5.85-9.26,.37-.13,.67,.29,.35,.51-4.25,2.99-3.49,5.98-1.1,7.74,2.69,1.97,5.43,.74,5.43,.74,3.46-2.98,7.59-2.01,9.29-2.05,.78-.02,1.86-.34,2.82-.69,1.36-.49,2.9-.42,4.18,.19,.31,.14,.55,.25,.64,.28,3.6-1.11,9.9-3.66,6.43-11.35-.16-.36,.42-.63,.68-.31,7.88,9.6-1.12,14.11-1.12,14.11,0,0,.46-.01,1.15,.03,1.2,.08,1.75,1.33,.91,2.05-2.35,2.02-5.71,3.68-6.6,3.92,8.21,2.76,11.04,14.33,10.94,21.92-.11,7.58-2.63,12.92-4.95,16.3Zm-10.48-44.14c2.93-.43,5.82-1.37,8.21-3,1.17-.83,2.2-1.85,2.79-3.07,.62-1.21,.69-2.58,.32-3.8,.04,1.27-.25,2.5-.91,3.57-.66,1.07-1.62,1.99-2.73,2.76-1.1,.78-2.35,1.42-3.65,2-1.3,.57-2.65,1.07-4.04,1.54Zm-2.44,13.28c-1.14,.08-2.31,.15-3.5,.37,1.13,.36,2.28,.59,3.47,.72,1.18,.12,2.42,.15,3.67-.09,.62-.11,1.25-.32,1.84-.62,.29-.15,.55-.37,.81-.55,.21-.24,.46-.46,.6-.73,.64-1.06,.51-2.21,.09-3.16-.25,1.01-.56,1.94-1.18,2.56-.59,.64-1.52,.92-2.53,1.13-1.02,.19-2.13,.28-3.27,.36Zm-4.24-7.9c2.55-.23,4.34-1.69,4.06-3.16-1.86,.06-3.3,.7-4.06,3.16Zm-10.12,4.73c1.45,.53,3.23-.53,3.1-1.87-1.03-.47-3.03-.18-3.1,1.87Zm-5-10.85c.85,.93,2.04,1.6,3.34,1.93,1.29,.35,2.66,.35,3.94,.12-1.31-.04-2.57-.23-3.72-.63-1.14-.41-2.17-1.03-2.9-1.84-.74-.81-1.19-1.81-1.22-2.85-.02-1.04,.35-2.09,.99-3.06-.9,.8-1.54,1.88-1.63,3.05-.11,1.17,.37,2.36,1.21,3.29ZM12.57,50.24c.44-1.92,1.5-3.69,2.87-5.28,.67-.81,1.43-1.56,2.22-2.3,.76-.76,1.59-1.47,2.39-2.21-1.83,1.26-3.6,2.61-5.11,4.19-.76,.78-1.43,1.64-1.98,2.55-.54,.92-.93,1.9-1.19,2.91-.25,1.01-.36,2.03-.36,3.05l-.02,1.48c-.06,.48-.1,.97-.23,1.44-.45,1.88-1.79,3.69-3.91,4.6,1.13-.31,2.11-.96,2.91-1.73,.76-.8,1.3-1.75,1.62-2.74,.18-.5,.26-1.01,.33-1.52l.08-1.52c.02-.98,.13-1.96,.38-2.91Zm26.47,10.54c-1.06,.19-2.11,.18-3.09-.03-.98-.19-1.9-.58-2.81-.99-1.8-.85-3.57-1.9-5.6-2.68-1.02-.37-2.09-.69-3.21-.87-1.12-.16-2.28-.21-3.4-.06-2.25,.28-4.27,1.17-5.92,2.34,2-.68,4.02-1.2,6.04-1.25,2.01-.05,3.96,.39,5.82,1.12,1.88,.69,3.67,1.67,5.72,2.38,1.02,.35,2.11,.64,3.25,.69,1.13,.04,2.27-.18,3.2-.66Zm34.22-11.45c-.27-1.75-1.05-3.44-2.29-4.79,.63,1.63,.99,3.25,1.01,4.87,0,1.62-.28,3.22-.81,4.78-.51,1.56-1.27,3.07-2.14,4.55-.88,1.47-1.9,2.9-3.01,4.33,1.62-1.03,2.99-2.34,4.12-3.77,1.14-1.44,2.03-3.03,2.61-4.72,.55-1.69,.79-3.49,.51-5.24Z"/>
  </g>
</svg>