<?xml version="1.0" encoding="UTF-8"?>
<svg id="Layer_2" data-name="Layer 2" xmlns="http://www.w3.org/2000/svg" viewBox="0 0 76.27 76.57">
  <defs>
    <style>
      .cls-1 {
        fill: #fff;
      }

      .cls-2 {
        isolation: isolate;
      }
    </style>
  </defs>
  <g id="Layer_1-2" data-name="Layer 1">
    <g class="cls-2">
      <path class="cls-1" d="M62.41,7.35c-.9-2.29-2.33-5.75-2.97-6.47-.51-.58-2.38,2.41-2.31,6.55,1-.18,1.96-.26,2.84-.26,.99,0,1.83,.09,2.43,.18Z"/>
      <path class="cls-1" d="M61.96,73.17c-.13-1.05-.64-7.84-.13-13.63,.36-4.08,.74-7.94,1.06-10.95-1.48,1.84-3.24,3.17-5.39,4.09-.6,2.37-1.06,4.69-1.39,6.88-.03,.2-.06,.4-.08,.61,.46,3.29,.9,6.52,1.06,8.42,.21,2.5,1.07,5.25,2.03,6.68,.81,1.19,1.77,1.28,1.77,1.28,0,0,1.36,0,2.43,0,.02-.49-.03-1-.31-1.41-.06-.1-.12-.19-.19-.28,.57,.4,.82,1.04,.96,1.69,.47,0,.81,0,.81,0,.72-1.07-.09-2.8-2.63-3.39Z"/>
      <path class="cls-1" d="M26.51,51.04c-.19,.31-.46,1.01-.68,1.59-.81,2.11-2.04,5.31-4.97,7.88-1.11,.98-2.3,1.8-3.46,2.5,1.96,3.98,5.39,11.03,6,11.64,.79,.79,1.9,1.82,3.2,1.9,0,0,1.44,0,2.64,0,0-.44-.06-.88-.31-1.25-.06-.1-.12-.19-.19-.28,.52,.37,.78,.93,.92,1.53,.69,0,1.23,0,1.23,0,.99-1.34-2.71-4.23-4.36-4.06-.83-2.79-1.8-7.65-1.38-7.99,.42-.34,4.85-3.92,7.23-9.17,.36-.79,.62-1.58,.81-2.36-1.28-.36-2.46-.73-3.49-1.05-1.28-.4-2.6-.81-3.19-.89Z"/>
      <path class="cls-1" d="M75.85,13.76c-.52-.09-8.14-1.31-9.27-1.49-1.05-1.75-2.1-3.5-3.59-3.76-.81-.14-3.65-.67-6.86,.24-.49-1.63-2.32-7.8-2.44-8.65-.13-.98-4.99,5.97-3.15,11.88,.01,.03,.02,.06,.03,.1-.81,.82-1.58,1.81-2.28,3-3.14,5.33-3.37,11.22-3.37,12.81,.09,1.3,.31,2.6,.89,3.78,.12,.27,.24,.54,.39,.79-.58-.73-1.04-1.62-1.37-2.49-.18-.47-.34-.95-.47-1.44-1.41,.56-5.18,2.01-8.04,2.74-5.4,1.39-17-3.17-22.45,4.29-1.61-.9-4.85-3-5.85-5.9-.38-.65-.73-1.33-1.03-2.02-.63-1.44-1.12-2.99-1.24-4.57-.13-1.61,.14-3.25,1.06-4.6,.84-1.23,2.2-2.12,3.61-2.56,1.88-.59,4.01-.44,5.88,.29-1.11-1.41-2.97-2.45-5.83-2.6-.67-.04-1.29-.02-1.86,.03-1.21,.43-2.36,1.06-3.33,1.86-.86,.71-1.61,1.63-2.06,2.65-.39,.89-.6,1.79-.71,2.76,.05-.98,.21-1.9,.55-2.83,.39-1.07,1.09-2.04,1.91-2.82,.47-.45,.99-.85,1.55-1.21-3.99,1.27-4.77,4.74-4.77,4.74,0,0,.1-1.28,.62-2.56-3.12,3.28-3.44,9.71,.89,15.09,2.88,3.58,7.03,5.35,9.49,6.14-4.73,9.66-1.63,9.81-2.8,12.42-1.18,2.62-6.82,6.04-6.69,7.87,.13,1.84,.39,14.83,.79,15.88,.39,1.05,1.62,2.31,2.77,2.92,0,0,1.14,0,2.23,0,0-.55-.12-1.1-.5-1.54,.52,.37,.78,.94,.92,1.54,.85,0,1.58,0,1.58,0,.09-1.17-1.68-3.08-3.26-3.6,.39-2.89,1.51-7.71,2.03-7.84,.53-.13,6.04-1.57,10.37-5.38,3.21-2.82,4.25-6.5,5.06-8.43,.63-2.6,.75-5.36,.23-7.99,.69,2.15,.95,4.43,.84,6.68,1.84-.07,10.92,4.12,18.94,3.71,.53-.03,1.04-.06,1.55-.09,.08-1.79,.23-3.69,1.19-5.15-.4,1.07-.33,2.24-.32,3.36,0,.99,.04,1.97,.08,2.96,.65,4.59,1.57,10.84,1.83,13.83,.21,2.5,1.07,5.25,2.03,6.68,.81,1.19,1.77,1.28,1.77,1.28,0,0,1.26,0,2.31,0,0-.55-.12-1.09-.5-1.53,.52,.37,.78,.93,.92,1.53,.55,0,.97,0,.97,0,.72-1.07-.09-2.8-2.62-3.39-.13-1.05-.21-8.01,.63-13.76,.38-2.59,.92-5.05,1.46-7.2,.23-1.86,.45-3.73,.68-5.59,.05,1.66,.1,3.31,.16,4.97,3.34-1.52,5.79-4.19,7.68-9.05,3.16-8.13-.86-16.26-.29-18.62-.98-.1-1.96-.27-2.92-.52-1.2-.31-2.47-.7-3.48-1.44,.92,.54,2,.79,3.05,.98,1.22,.22,2.45,.3,3.69,.3,.16,0,.32,0,.48-.01,2.74-.38,8.48-.72,9.02-3.64-1.18,.09-2.36,.15-3.55,.19-1.03,.04-2.06,.2-3.09,.16-.77-.03-1.54-.21-1.98-.9,.52,.69,1.36,.78,2.17,.73,.97-.06,1.92-.26,2.88-.36,1.32-.14,2.64-.32,3.94-.55,.38-.59,.95-1.58,.89-2.23,.61-.96,.52-2.8,0-2.89ZM3.62,29.29c-1.11-1.89-1.65-4.12-1.2-6.29,.07,.93,.19,1.83,.41,2.73,.31,1.15,.79,2.24,1.37,3.27,.9,1.6,2.07,3.1,3.33,4.43-1.63-.95-2.97-2.53-3.91-4.14ZM57.15,12.28c.11-1.03,.6-1.46,1.53-1.03,.27-.75,1.45-.87,1.81-.03,.69-.6,2.04-.02,2.22,1.73-.46-.71-1.21-1.25-2.13-1.42-.67-.12-1.33-.03-1.9,.22-.17,.07-.32,.15-.47,.25-.03,.02-.06,.04-.08,.06-.62,.44-1.08,1.1-1.22,1.88-.01,.08-.02,.16-.03,.24-.12-.24-.74-1.64,.27-1.9Zm-3.94-10.26c.68,2.53,1.39,5.06,1.82,7.65-.8-2.02-1.42-4.11-2.02-6.19-1.03,1.82-1.62,3.94-1.61,6.02-.56-2.67,.42-5.24,1.81-7.48Zm8.47,15.03c-.41-.04-.83-.03-1.25-.06-.41-.02-.82,0-1.23-.02-.36,.02-.7,.05-1.04-.07,.34-.08,.66-.22,.99-.31,.41-.07,.8-.11,1.22-.12,.41,.03,.81,.08,1.21,.18,.33,.09,.63,.28,.98,.32-.28,.14-.58,.1-.88,.07Zm-2.22-2.32c-.08,.43,.07,.85,.35,1.15-.53,.02-1.04,.08-1.5,.18-.09-.28-.11-.57-.06-.87,.19-1.06,1.28-1.74,2.43-1.53,.02,0,.03,0,.05,.01-.62,0-1.17,.44-1.28,1.07Zm1.71-.62c.22,.04,.37,.25,.33,.47-.04,.22-.25,.37-.47,.33-.22-.04-.37-.25-.33-.47,.04-.22,.25-.37,.47-.33Zm.6,.07c.5,.45,.77,1.1,.65,1.77-.01,.06-.03,.13-.05,.19-.26-.06-.54-.11-.82-.16,.23-.19,.41-.46,.47-.78,.07-.38-.04-.74-.25-1.02Zm1.55,1.38c-.24-.9-.65-1.62-1.47-2.12-.64-.39-1.36-.48-2.09-.41-.45,.11-.86,.24-1.25,.51-.53,.37-.83,.84-1.1,1.41,.2-1.5,1.5-2.48,2.97-2.46,.71,.01,1.46,.29,1.99,.76,.67,.6,.99,1.4,.95,2.3Zm11.54,1.31c-.9-.04-1.79-2.55-1.73-2.75,.07-.2,2.17-.15,2.49,.42,.33,.57-.38,2.35-.76,2.33Z"/>
      <path class="cls-1" d="M10.43,16.69c-1.42,.56-2.72,1.53-3.4,2.93-.72,1.47-.72,3.17-.48,4.76,.22,1.44,.65,2.88,1.2,4.25-.04-.28-.06-.56-.05-.85,.13-4.99,3.15-5.25,4.46-4.33-.11-.57-.39-1.01-.67-1.33-.19-.13-.38-.23-.53-.31-.66-.33-1.37-.5-2.08-.68,.87,.07,1.73,.16,2.55,.48,1.04,.28,2.86,1.18,3.09,4.07,1.12-.3,2.05-1.37,2.59-2.75-.24-.99-.71-1.95-1.39-2.67-.36-.39-.76-.71-1.21-.99-.55-.35-1.16-.56-1.78-.76,.65,.14,1.27,.29,1.87,.59,.52,.26,.97,.57,1.4,.95,.58,.52,1.06,1.18,1.41,1.9,.39-1.7,.22-3.68-.81-5.29-2.01-.64-4.24-.73-6.17,.03Z"/>
    </g>
  </g>
</svg>