<?xml version="1.0" encoding="UTF-8"?>
<svg id="Layer_2" data-name="Layer 2" xmlns="http://www.w3.org/2000/svg" viewBox="0 0 98.04 80.35">
  <defs>
    <style>
      .cls-1 {
        fill: #090909;
      }
    </style>
  </defs>
  <g id="Layer_1-2" data-name="Layer 1">
    <g>
      <path class="cls-1" d="M43.53,47.88c.09,.21-.09-.21,0,0h0Z"/>
      <path class="cls-1" d="M3.59,17.66c-.3,1.09-.07,2.4,.56,3.33,.75,1.12,2.12,1.8,3.47,1.74-.88-.13-1.79-.58-2.41-1.21-.63-.64-.89-1.42-1.03-2.27-.02-.56,0-1.1,.22-1.63,.28-.64,.78-1.14,1.37-1.5,.65-.4,1.38-.66,2.13-.8,.4-.08,.81-.1,1.22-.16,1.39-.19,2.57-1.13,3.24-2.33,.65-1.14,.82-2.42,.84-3.71-.39,1.83-1.03,3.81-2.77,4.79-.51,.29-1.06,.44-1.64,.48-.7,.04-1.39,.16-2.06,.37-1.41,.45-2.74,1.41-3.14,2.89Z"/>
      <path class="cls-1" d="M7.89,59.56c-.07-.37-.13-.78-.15-1.24-.04-.77,.07-1.42,.25-1.96-.14-.39-.13-.88,0-1.41,.27-1.07,1.41-4.45-1.58-5.3,.91,1.48,.22,3.35-.67,4.69-.39-3.28-2.86-4.33-4.02-3.68,1.46,1.03,2.12,4.17,2.12,4.17,0,0-3.02-1.82-3.84-.38,2.06,.46,6.5,3.34,5.6,8.14,1.96-1.53,2.22-3.05,2.22-3.05,0,0,.03,0,.07,.02Z"/>
      <path class="cls-1" d="M14.02,55.48c-1.16,.82-4.03,1.9-5.06,1.67-.2-.04-.37-.11-.51-.21-.09,.39-.13,.84-.11,1.34,.03,.57,.11,1.05,.21,1.46,1.16,.28,3.56,.67,6.33,.06,2.54-.56,5.33-2.05,7.14-3.4-1.2-1.47-2.19-3.1-2.94-4.86-1.49,1.31-3.61,2.91-5.06,3.94Z"/>
      <path class="cls-1" d="M71.72,73.48c-.33,.05-.52,.11-.52,.11,0,0,.02-.03,.07-.09-.26,0-.53,0-.83-.01-1.26-.08-2.16-.52-2.78-.97-1.58-.43-4.58-.76-6.2,2.14,2.55-1.19,5.38-.49,5.38-.49,0,0-4.85,.99-4.8,3.31,1.73-.65,5.34-1.3,5.34-1.3,0,0-3.62,1.6-3.56,4.17,3.22-2.46,8.56-6.26,12.56-5.9-1.59-1.01-3.17-1.11-4.15-1.03-.16,.03-.33,.05-.52,.06Z"/>
      <path class="cls-1" d="M68.86,72.51c.44,.19,.98,.33,1.62,.37,.48,.03,.91,.02,1.28-.02,1.36-1.78,4.82-6.28,5.46-6.99,.8-.89-1.38-1.49-2.39-2.63-.25-.28-.48-.57-.69-.87-2.26,1.12-4.69,1.8-7.14,1.92-.33,.02-.66,.02-.99,.02,1.01,1.45,2.7,3.35,5,4.05-.78,1.1-1.77,3.26-2.15,4.12Z"/>
      <path class="cls-1" d="M30.2,75.29s.04-.02,.1-.05c-.21-.13-.43-.28-.65-.46-.66-.5-1.1-1.05-1.4-1.57-.68-.23-1.39-.9-1.9-1.52-.83-1.01-3.26-4.48-6.18-2.22,2.05,.18,3.35,2.15,4.01,3.95-3.41-1.94-6.15-.32-6.35,1.24,2.01-.67,5.47,.92,5.47,.92,0,0-3.86,1.61-3.07,3.4,1.89-1.65,7.76-3.85,11.72,.38-.08-2.96-1.76-4.07-1.76-4.07Z"/>
      <path class="cls-1" d="M68.23,15.05c.45,.72,1.24,1.75,2.64,3.05,1,.92,3.01,2.28,4.29,3.12-.17,.06-.33,.16-.45,.28-1.1,1.07,.2,2.59,1.07,3.29-1.2,.52-.2,2.01,.24,2.68,.87,1.34,1.91,2.57,2.96,3.77-.52-.24-1.28-.36-1.52,.32-.15,.45,.04,1.03,.16,1.46,.41,1.53,.96,3.02,1.56,4.49-.4-.27-.93-.22-1.19,.21-.26,.43-.22,1.04-.21,1.52,.04,1.24,.24,2.47,.46,3.69-.33-.26-.77-.25-1.08,.03-.28,.24-.39,.64-.48,.99-.28,1.11-.37,2.27-.43,3.41-.32-.37-.81-.54-1.28-.38-.43,.15-.75,.52-1.02,.87-.83,1.07-1.44,2.32-2,3.55-.02-.5-.15-1.08-.63-1.33-.37-.19-.79-.07-1.13,.13-.56,.33-1.04,.81-1.48,1.26-.47,.48-.92,.99-1.35,1.51,.1-.69,.03-1.5-.49-2.01-.54-.54-1.34-.43-1.96-.09-.64,.35-1.25,.72-1.93,1-.72,.3-1.44,.56-2.19,.78-.09,.03-.35,.06-.51,.15-.1-.06-.21-.12-.31-.18-1.95,2.6-4.21,4.83-6.7,6.64-.04,.03-.08,.06-.12,.09,2.59,1.5,7.1,3.3,9.81,3.82,5.45,1.07,10.68-.75,14.74-4.14-.2-.32-.35-.66-.41-.81-.33-.75-.56-1.57-.62-2.39,.23,.76,.6,1.49,1.07,2.13,.16,.22,.35,.44,.55,.64,1.05,.85,2.58,1.8,4.36,2.12,3.41,.6,5.05-.47,5.8-1,.7-.5,1.38,4.31,1.72,6.48,.46-.07,.96-.22,1.5-.49,.43-.22,.78-.44,1.09-.66-.09-2.4-.47-11.59-1.01-12.48-.62-1.03-1.84,.96-3.26,1.08-1.69,.14-3.47-.66-4.84-2.44,0-.01,.01-.03,.02-.04-.28-.45-.53-.9-.73-1.39-.38-.93-.66-1.95-.75-2.95,.25,.93,.66,1.83,1.15,2.65,.2,.33,.42,.63,.67,.93,2.65-6.44,2.14-13.65-.68-19.99-.41-.91-4.34-8.66-6.49-9.84-.43-.59-1.02-1.41-1.54-2.21-.96-1.47,.02-3.67,1.23-5.49,1.21-1.82,4.63-2.5,4.59-3.16-.03-.67-1.03-.23-1.03-.23,0,0,.41-.3-.02-.99-.38-.61-1.82-.23-3.75,1.06-.43,.55-.78,1.16-1.09,1.78-.61,1.2-1.09,2.49-1.43,3.79,.23-1.3,.6-2.6,1.08-3.83,.24-.61,.52-1.2,.85-1.76,.65-2.65,4.21-3.2,4.99-3.61,.82-.43,1.09-1.47,.13-1.49-.2-.48-2.25-.52-3.91-.04-.34,.1-.7,.22-1.07,.37-1.44,1.28-2.19,3.31-2.69,5.11-.52,1.86-.85,3.82-.95,5.75-.03-2.67,.32-5.45,1.18-7.98,.25-.73,.56-1.45,.96-2.11-.98,.62-1.91,1.45-2.56,2.53,.07-1.38,2.59-3.66,2.15-4.09-.45-.44-3.43,2.57-3.91,3.51-.48,.94-1.87,2.74-.71,6.03-.43-.79-1.24-3.48-1.8-2.67-.56,.8-.23,2.71,.69,4.19Zm-7.2,38.17c.1,0,.2-.01,.3-.02,.8-.07,1.6-.22,2.36-.48,.37-.12,.74-.26,1.09-.42,.32-.15,.64-.37,.99-.45,.58-.13,.39,1.38,.35,1.68-.04,.36-.11,.72-.21,1.07-.02,.07-.08,.19-.12,.31-1.62-.29-3.3-.92-4.77-1.68Zm8.29,1.62c-.86,.23-1.82,.28-2.83,.17,.01,0,.02-.02,.03-.03,.3-.23,.59-.48,.88-.73,.55-.48,1.08-.97,1.63-1.46,.53-.47,1.05-.98,1.65-1.37,.1,.78,.04,1.59,.07,2.38,0,.11-.02,.36,.01,.57-.47,.19-.95,.34-1.44,.47Zm2.16-.79s.06-.09,.09-.14c.38-.61,1.98-3.29,2.44-4,.38-.59,.78-1.31,1.34-1.73,.33,.32,.46,.89,.62,1.32,.09,.24,.17,.48,.27,.72-1.32,1.57-2.95,2.95-4.75,3.83Zm7.4-8.06c-.18,.4-.37,.8-.59,1.2-.39,.73-.85,1.46-1.37,2.16,.11-.51,.2-1.03,.29-1.54,.2-1.17,.35-2.36,.65-3.51,.36,.53,.65,1.11,.98,1.65,0,.01,.02,.03,.03,.05Zm1.51-5.86c-.16,1.67-.53,3.33-1.13,4.93-.03-.24-.06-.48-.09-.72-.09-.73-.18-1.45-.26-2.17-.08-.67-.15-1.34-.2-2.01-.03-.33-.05-.66-.05-.99,0-.31-.03-.66,.07-.96,.32,.14,.58,.51,.79,.77,.27,.34,.52,.69,.77,1.05,.04,.04,.07,.09,.11,.11Zm-.42-7.36c.41,2.1,.6,4.23,.49,6.34-.04-.14-.07-.28-.11-.42-.16-.58-.33-1.16-.5-1.74-.45-1.51-.97-3.02-1.31-4.56-.02-.1-.04-.19-.06-.29,.52,.14,1.01,.42,1.49,.67Zm-2.2-6.71s.1,.02,.15,.03c.2,.4,.35,.7,.4,.84,.44,1.19,.83,2.41,1.15,3.65-.31-.45-.63-.89-.94-1.34-.25-.35-.49-.71-.74-1.07-.5-.73-1.1-1.51-1.41-2.34,.31,0,.62,.07,.91,.14,.16,.03,.31,.07,.47,.1Zm-1.74-4.27c.23,.82,.71,1.89,1.17,2.85-.49-.47-.97-.96-1.34-1.52-.16-.24-.26-.48-.28-.77,0-.25,.14-.47,.27-.67,.06,.04,.12,.08,.18,.11Z"/>
      <path class="cls-1" d="M88.92,66.82c-1.81,.63-3.8,2.62-3.85,5.03,1.03-1.89,4.28-3.08,4.28-3.08,0,0-3.88,2.56-2.44,6.01,1.19-2.81,3.52-4.23,3.52-4.23,0,0-1.44,2.82,0,4.76,.61-3.27,3.83-9.68,7.62-10.15-2.15-.59-3.76-.18-4.61,.16-.39,.31-.87,.64-1.49,.95-1.19,.61-2.25,.66-3.03,.56Z"/>
      <path class="cls-1" d="M10.04,26.08c.27,.12-.48-1.1,0-1.2,.49-.1,2.12,1.92,2.32,1.29,.35-1.08,.53-3.18,1-3.39,.46-.21,.8,1.65,1.29,1.44,.49-.21,.9-3.03,1.48-3.17,.57-.14,.1,1.92,.59,1.77,.49-.16,1.01-1.95,1.15-1.75,.14,.2,.51,.11,.78-.33,.27-.44,.73-.22,.72,.54-.01,.77,.39,.4,.79-.09,.4-.5,1.31-1.76,1.82-1.18,.51,.58-.04,1.77-1.01,2.54-.96,.76-2.2,.33-2.53,.63-.33,.31-.75,1.86-1.53,2.04-.78,.17-.63-1.02-1-1.03-.37,0-.93,1.95-1.4,2.08-.47,.13-.59-.63-.83-.62-.24,.01-.19,.86-.61,1.46-.42,.6-1.8,.75-2.45,.5-.65-.25-1.1-.86-.74,.67,.36,1.53,2.59,.99,2.84,1.69,.25,.69-2.54,1.4-2.5,3.51s4.25,1.68,4.25,1.68c0,0-1.16-.71-1.85-1.74-.69-1.02,1.54-2.9,1.54-2.9,0,0,.17,.56,.49,1.38,.32,.83,1.04-.27,1.13-1.26,.09-.99,1.11-1.59,3.53-3.32,1.11-.8,2.3-1.4,3.5-1.89,.36-.21,.71-.43,1.06-.65,1.2-.76,2.37-1.57,3.53-2.39,.07-.05,.14-.1,.21-.15-.81,.74-1.64,1.47-2.48,2.18-.61,.51-1.22,1.02-1.85,1.5-.08,.07-.17,.13-.26,.19-2.64,4.74-4.57,10.1-4.82,15.49-.42,8.37,3.69,16,11.33,19.59,.06-1.19,.12-2.38,.18-3.58,.15,1.29,.3,2.58,.46,3.86,.22,1.83,.44,3.91,.54,5.95,.09,1.69-.32,4.74-1.26,5.56-.14,.13-.3,.2-.45,.24,.25,.35,.58,.71,1.02,1.05,.32,.24,.61,.44,.89,.6,1.15-.69,3.43-2.3,4.73-4.82,1.02-1.97,1.31-4.07,1.32-6.01-.04-.23-.01-.51,0-.68,0-.02,0-.04,0-.06,0-.04,0-.08,0-.13,0-.66-.12-1.37-.3-1.99-.36-1.24-1.01-2.54-2.06-3.33,1.15,.67,1.96,1.9,2.49,3.09,.28,.64,.45,1.32,.59,2.01,.02,.09,.03,.19,.04,.28,5.53,.32,10.71-1.49,15.08-4.65,2.48-1.79,4.69-4.01,6.57-6.52,1.02-1.36,1.94-2.81,2.74-4.32,4.19-7.86,5.28-20.95-2.97-24.42-.58-.86-1.26-1.66-1.99-2.38-1.04-1.04-2.26-2-3.66-2.51-.77-.28-1.87-.59-2.54,.09-.97,.99,.02,2.77,.64,3.66-1.63-.88-3.85-1.72-5.69-1-.72,.28-1.34,.91-1.54,1.67-.26,.98,.38,1.8,1.29,2.12-.79,.15-1.58,.35-2.35,.59-1.05,.33-2.25,.71-3.08,1.45-.53,.47-.8,1.11-.48,1.79,.45,.95,1.71,1.26,2.66,1.28-.83,.53-1.61,1.13-2.34,1.79-.68,.62-1.34,1.32-1.75,2.16-.25,.51-.38,1.14-.12,1.68,.42,.85,1.47,.77,2.22,.5-.92,1.09-1.78,2.6-1.5,4.08,.24,1.26,1.44,2.41,2.76,1.74-.42,1.06-1,2.76-.15,3.76,.63,.74,1.58,1.08,2.54,1.21,.19,.39,.38,.77,.58,1.14,2.39-.92,4.65-2.73,6.55-5.28,.21-.28,.41-.57,.61-.87-.85-3.51-1.44-8.54,.86-9.5,.05-.02,.1-.04,.15-.06,4.53-1.74,1.73,6.48,.7,8.41-.49,.87-1.04,1.72-1.64,2.53-1.94,2.6-4.45,4.76-7.43,5.74-.38,.12-.76,.23-1.15,.32,.19-.3,.33-.63,.35-.97,.01-.2-.02-.41-.1-.59-.51-1.22-2.27-.74-3.26-.56-1.66,.31-3.41,.31-5.1,.26,.77-.33,2.04-1.03,1.99-2.02-.05-.96-1.23-1.11-1.94-1.33-.49-.15-.97-.36-1.36-.69-.4-.34-.63-.81-.91-1.25-.26-.41-.51-.84-.77-1.25,.6,.45,1.34,.88,2.12,.84,.78-.04,1.3-.68,1.26-1.44-.04-.87-.49-1.74-.91-2.49-.44-.79-.94-1.54-1.48-2.27,.62,.31,1.42,.52,2.05,.11,.48-.31,.66-.87,.59-1.43-.1-.74-.46-1.43-.83-2.07-.41-.71-.89-1.39-1.4-2.03,.57,.28,1.24,.52,1.88,.35,.61-.17,.91-.69,.86-1.31-.06-.67-.33-1.33-.61-1.94-.33-.74-.71-1.45-1.12-2.16,.54,.41,1.26,.84,1.96,.62,.74-.24,.9-1.09,.87-1.77-.04-.81-.29-1.62-.58-2.37-.01-.03-.02-.06-.03-.09-.22,.03-.45,.05-.67,.06-.16,0-.32,0-.49,0,.09,.33,.19,.66,.27,.99,.14,.57,.35,1.33,.18,1.92-.55-.11-1.09-.6-1.52-.93-.55-.42-1.67-1.29-1.68-1.3,.11-.39,.24-.75,.39-1.09-.18-.06-.36-.13-.54-.22-.97-.45-1.93-1.23-2.08-2.35,.43,1.19,1.63,1.8,2.84,2.07-.04,.08-.09,.19-.13,.27,.06-.13,.1-.21,.13-.27,.41,.09,.82,.15,1.21,.18,1.43,.1,3.16-.11,4.31-1.07-2.62-1.36-5.28-2.64-7.82-4.15,1.22,.39,2.43,.84,3.63,1.33,.08-.89,.03-1.82-.16-2.7,.23,.21,.45,.42,.66,.64,.78,.84,1.43,1.86,1.64,2.99,.46,.21,.92,.42,1.38,.64-.02-.52-.12-1.05-.29-1.54-.45-1.27-1.37-2.35-2.49-3.13,.36-.07,.72-.15,.98-.23,.75-.24,2.82,.88,3.28,.69,.67-.27-.34-.79-1.07-1.1-.73-.31-.62-.94,.84-.49,1.46,.45,4.52,1.42,5.1,.39,.33-.58-2.37-.68-2.88-1.13-.51-.46,.47-.66,3.05-1.16,2.58-.5,2.32-1.93,1.01-1.73-1.38,.21-3.41,.86-4.26,.9-.85,.04,1.7-2.54,.67-2.79-.68-.16-2.04,1.49-3.32,3.32-.51,.74-1.27,.94-1.44,.92-.48-.06,.78-2.89,.22-2.72-1.19,.37-1.46,2.6-1.87,3.3-.23,.4-.97,.8-1.56,1.08-.05-.14-.11-.27-.17-.4,.33-.31,.64-.64,.94-.99,.23-.27,.49-.55,.63-.87,.22-.52,.15-1.13-.22-1.57-.36-.43-.93-.61-1.47-.69-1.21-.17-2.47,.07-3.68,.32,.18-.15,.35-.3,.48-.43,.56-.56,2.91-.5,3.23-.88,.47-.55-.66-.55-1.46-.49-.79,.06-.98-.55,.52-.82,1.51-.27,4.67-.8,4.72-1.98,.03-.67-2.42,.48-3.08,.31-.66-.17,.12-.8,2.18-2.42,2.06-1.62,1.18-2.78,.11-2.01-1.13,.82-2.64,2.33-3.38,2.75-.74,.42,.35-3.04-.68-2.78-.68,.17-1.14,2.26-1.43,4.47-.12,.89-.7,1.41-.86,1.47-.46,.17-.63-2.93-1.05-2.52-.89,.87-.11,2.98-.16,3.79-.02,.38-.35,.92-.69,1.39-1.06-.09-2.16,.02-3.28,.26-1.86,.39-5.67,2.83-6,3.2-.15,.17-.11,.42-.02,.64,.09,.09,.19,.17,.3,.25,.55,.37,1.13,.7,1.75,.95-.68-.08-1.35-.24-2-.46-.05-.02-.11-.04-.18-.07-.28,.12-.63,.28-.89,.37-.41,.14-.29,.9-.24,1.14,.07,.07,.14,.13,.21,.19,.61,.48,1.35,.83,2.09,1.07-.72-.04-1.45-.19-2.13-.44-.17-.06-.53-.2-.83-.39-1.17,.62-3.52,1.85-4.34,2.15-1.11,.41-3.36,1.79-4.12,2.05-.76,.25-1.27,1.26-1.19,2.88,.08,1.62,1.63,3.29,2.08,3.49Zm41.86-6.18s.02,0,.02,0c.04,0-.02,0-.02,0Zm.41,.05c1.28,.23,2.45,1.01,3.49,1.76,.44,.32,.87,.66,1.3,1-1.08-.21-2.28-.3-3.61-.22-.24,.01-.48,.03-.72,.05-.13-.86-.38-1.72-.45-2.59Zm-6.15,4.03c-.25-.21-.48-.43-.28-.74,.31-.48,.81-.67,1.37-.72,.78-.07,1.56,.03,2.32,.16,.36,.06,.72,.13,1.09,.21-1.4,.35-2.63,.92-3.7,1.67-.28-.18-.55-.36-.8-.57Zm-3.42,5.26c-.48-.3-1.09-.57-1.47-1,.54-.47,1.27-.78,1.91-1.09,.34-.16,1.56-.74,1.83-.86-.82,.92-1.5,1.96-2.04,3.1-.08-.05-.15-.1-.23-.15Zm-1.56,5.78c-.39,.09-.78,.17-1.18,.22-.14,.01-.6,.09-.7-.05-.02-.02-.01-.13-.02-.15,0-.45,.35-.91,.6-1.25,.68-.97,1.54-1.82,2.37-2.66-.42,1.22-.71,2.52-.86,3.84-.07,.02-.15,.04-.21,.06Zm-.24,5.67c-.44-.44-.49-1.09-.37-1.67,.13-.7,.38-1.37,.68-2.03,0,.37-.01,.73,0,1.1,.02,.73,.16,1.58,.39,2.5-.24,.11-.57,.23-.7,.1Zm1.76,4.88c-.42-.3-.61-.63-.61-1.16,0-.54,.09-1.07,.22-1.6,.37,1.07,.82,2.17,1.31,3.23-.33-.12-.64-.27-.91-.47Zm-2.27,2.82c.42-.05,2.08-.47,2.09,.11,0,.35-.12,.71-.21,1.04,0,.02-.01,.04-.02,.07-.91,.12-1.86,.13-2.85,.01-1.4-.16-2.74-.64-3.91-1.35,1.63,.26,3.26,.28,4.9,.12Zm-8.54-5.76c.21,.5,.42,1.02,.73,1.46,.68,.96,1.74,1.39,2.82,1.73-.43,.47-.9,.92-1.31,1.42-.86-.77-1.54-1.68-1.96-2.66-.43-.98-.67-2.07-.79-3.21,.16,.43,.33,.85,.51,1.27Zm.78-5.79c.3,.6,.58,1.2,.86,1.81,.25,.56,.57,1.19,.61,1.81-.56,0-1.14-.31-1.64-.52-.22-.09-.43-.18-.65-.27-.09-.04-.32-.17-.55-.26,0-1.59,.18-3.21,.36-4.72,.13,.28,.24,.56,.37,.82,.22,.44,.43,.89,.65,1.33Zm.65-5.2c.26,.47,.51,.95,.74,1.44,.14,.31,.27,.63,.38,.95,.06,.2,.16,.46,.1,.66-.13,.1-.41,.01-.55-.02-.31-.07-.62-.18-.92-.29-.24-.09-1.11-.43-1.31-.5,.05-.43,.1-.84,.15-1.25,.11-.93,.16-2.02,.21-3.17,.14,.25,.95,1.69,1.21,2.17Zm1.08-4.18c.24,.59,.53,1.24,.6,1.88-.51,.04-1.08-.2-1.56-.37-.32-.11-.64-.22-.96-.33-.1-.03-.21-.09-.33-.13,.08-1.71,.19-3.49,.49-5.05,.05,.11,1.49,3.34,1.76,4.01Zm-1.9-17.38c.35-.02,.7-.03,1.05,0,.21,.02,.67,.03,.81,.22,.02,.15-.08,.28-.14,.4-.14,.26-.27,.52-.39,.78-.04,.08-.1,.2-.16,.33-.46-.71-.96-1.28-1.5-1.72,.11,0,.22-.02,.33-.02Zm-8.51,6.26c.11,.26,.33,.46,.59,.57-.27,.09-.52,.19-.77,.3-.03-.05-.05-.1-.08-.15-.24-.55-.1-1.17,.31-1.65-.16,.29-.19,.62-.06,.93Zm.63-1.11c.21-.08,.44,0,.52,.19,.08,.18-.03,.39-.23,.47-.21,.08-.44,0-.52-.19-.08-.18,.03-.39,.23-.47Zm1.03,1.86c.72-.2,1.68-.33,2.39-.05-1.43,.23-2.82,.74-4.26,.94,.52-.44,1.21-.71,1.86-.89Zm.6-.61c.23-.31,.29-.7,.14-1.06-.22-.52-.83-.79-1.43-.66,.02,0,.03-.01,.05-.02,1.08-.41,2.26-.04,2.63,.83,.11,.25,.13,.51,.1,.76-.46,0-.96,.05-1.48,.14Zm.13-2.43c-.44-.05-.85,0-1.29,.1-.5,.12-.96,.38-1.35,.71-.63,.53-.9,1.23-.95,2.03-.79-3.17,4.47-4.68,5.63-1.69-.53-.65-1.18-1.07-2.03-1.16Zm-1.62-1.45c.2-.79,1.37-.93,1.76-.33,.82-.55,1.38-.28,1.67,.59,1.03,.02,.67,1.35,.6,1.58-.02-.07-.04-.13-.07-.2-.28-.65-.84-1.13-1.52-1.38-.03-.01-.06-.02-.09-.04-.16-.06-.32-.1-.5-.12-.6-.1-1.26-.05-1.88,.19-.86,.33-1.5,.94-1.82,1.64-.14-1.54,1.07-2.31,1.85-1.93Zm-6.99,5.13c1.07-.19,2.25-.04,3.26,.33,.73,.27,1.41,.66,2.05,1.11,.64,.45,1.23,.97,1.9,1.37,1.39,.83,3.15-.07,4.33-.91-.7,.75-1.64,1.41-2.64,1.68-1.01,.27-1.79-.04-2.65-.58-1.07-.67-2.07-1.47-3.28-1.9-.91-.32-1.8-.37-2.75-.33-.53,.09-1.07,.16-1.57,.38-.75,.27-1.45,.68-2.1,1.13-1.12,.77-2.13,1.71-3.03,2.73,1.4-2.41,3.68-4.52,6.49-5.02Zm-6.76,2.75c1.08-.3-.9,2.5-.9,2.5,0,0-1-1.98,.9-2.5Z"/>
    </g>
  </g>
</svg>