<?xml version="1.0" encoding="UTF-8"?>
<svg id="Layer_2" data-name="Layer 2" xmlns="http://www.w3.org/2000/svg" viewBox="0 0 77.91 84.37">
  <defs>
    <style>
      .cls-1 {
        fill: #fff;
      }

      .cls-2 {
        isolation: isolate;
      }
    </style>
  </defs>
  <g id="Layer_1-2" data-name="Layer 1">
    <g class="cls-2">
      <path class="cls-1" d="M9.56,12.11c.91-.61,1.89-1.07,2.93-1.39-3.9-3.23-7.81-7.08-7.81-7.08-.55,.15,1.04,3.89,2.81,6.12,.61,.77,1.35,1.6,2.07,2.35Z"/>
      <path class="cls-1" d="M4.7,17.58c.74-1.12,1.58-2.27,2.5-3.35,.05-.05,.09-.11,.14-.16L.9,16.08s.69,1.5,3.8,1.5Z"/>
      <path class="cls-1" d="M28.93,77.93c-1.38-.37-2.28-.26-2.68-.16-.67,2.84-1.67,6.07-1.67,6.07l2.71-1.93,.79,2.34s1.97-1.96,3.05-4.82c-.26-.42-.87-1.13-2.2-1.49Z"/>
      <path class="cls-1" d="M29.61,58.72c-2.67-.91-5.08-2.07-7.19-3.44,1.5,5.73,4.66,18.35,4.14,21.02-.06,.32-.13,.66-.21,1,.54-.09,1.45-.13,2.74,.21,1.17,.31,1.85,.87,2.24,1.34,.09-.28,.17-.56,.24-.86,.21-.88,.38-4.35,.51-8.35-.57-2.91-1.4-6.61-2.47-10.94Z"/>
      <path class="cls-1" d="M58.29,60.22c-1.99,.28-4.06,.51-6.18,.68,2.41,2.37,7.72,7.59,9.23,9.17,.88,.92,1.22,3.25,1.33,5.54,.55-.07,1.41-.06,2.55,.24,.69,.18,1.21,.46,1.61,.75,.04-.26,.08-.53,.12-.79,.37-2.71,.47-8.38,.49-10.6-1.37-.5-3.39-1.27-6.4-2.93-.99-.55-1.91-1.24-2.75-2.07Z"/>
      <path class="cls-1" d="M65.06,76.27c-1.1-.29-1.89-.28-2.37-.22,.09,2.69-.11,5.2-.11,5.2l1.96-1.68,1.2,1.96s.59-2.11,1-4.4c-.36-.32-.89-.66-1.68-.87Z"/>
      <path class="cls-1" d="M14.7,10.62c.1,.19,.2,.36,.29,.53,.22,.33,1.02,1.37,2.6,.76,.68-.26,1.16-.55,1.51-.8-.42-.53-.84-1.1-1.26-1.69-.38,.28-.89,.57-1.61,.85-.55,.22-1.07,.32-1.53,.35Z"/>
      <path class="cls-1" d="M13.63,8.56c.28,.57,.57,1.13,.84,1.64,.45-.02,.97-.1,1.54-.33,.71-.27,1.2-.57,1.55-.83-.36-.52-.73-1.05-1.08-1.58-.36,.25-.84,.51-1.47,.75-.5,.19-.96,.29-1.38,.34Z"/>
      <path class="cls-1" d="M12.7,6.48s.02,.05,.03,.07c.2,.51,.45,1.05,.7,1.59,.41-.03,.87-.12,1.38-.31,.62-.24,1.08-.5,1.42-.74-.35-.54-.7-1.07-1.03-1.59-.35,.22-.79,.45-1.35,.67-.41,.16-.79,.25-1.15,.31Z"/>
      <path class="cls-1" d="M75.99,75.66c-1.12-.3-1.92-.28-2.4-.21,.54,2.96,.68,5.27,.68,5.27l1.57-1.75,1.74,1.7s.12-1.7,.21-4.01c-.36-.36-.92-.76-1.81-1Z"/>
      <path class="cls-1" d="M36.49,78.03c-1.53-.4-2.46-.23-2.79-.13-.66,2.85-1.72,6.01-1.72,6.01l2.71-1.93,1.33,2.4s1.91-2.45,2.78-4.63c-.14-.32-.7-1.28-2.32-1.71Z"/>
      <path class="cls-1" d="M13.16,3.69c.27-.11,.51-.21,.72-.32-1.18-1.95-1.98-3.37-1.98-3.37-.4,.02-.33,1.95,.09,3.98,.36-.04,.75-.13,1.18-.29Z"/>
      <path class="cls-1" d="M12.08,4.41c.13,.57,.29,1.13,.47,1.65,.34-.05,.7-.13,1.1-.29,.56-.22,.99-.45,1.31-.66-.29-.47-.58-.92-.84-1.36-.22,.11-.47,.22-.75,.33-.46,.18-.89,.28-1.29,.33Z"/>
      <path class="cls-1" d="M77.19,64.69c-1.16-2.33-3.15-6.77-3.78-9.68,.24-1.39,1.01-6.6,.02-11.24,.01,0,.02,0,.03,0-.07-.31-.14-.62-.23-.93-.18-.68-.38-1.41-.87-1.97,.64,.48,1.02,1.17,1.38,1.81,.23,.42,.44,.85,.64,1.28,1.69,.22,2.67-.45,1.42-2.88-1.82-3.55-7.78-4.96-10.35-5.48-6.72-1.36-9.78,2.29-21.56,2.1-13.16-.22-16.26-3.52-17.58-9.61-.7-3.22-.69-6.59-1.25-9.46-.82-.15-1.59-.4-2.33-.8-.92-.51-1.77-1.26-2.27-2.09,.57,.74,1.44,1.36,2.35,1.78,.88,.4,1.79,.57,2.76,.61,5.69-.11,7.48-4.05,7.48-4.05l-10.42-.45c-.38-.35-.81-.68-1.32-.95-.52-.29-1.04-.53-1.57-.74-.12-.15-.25-.3-.37-.45-.38,.27-.89,.56-1.59,.82-.99,.37-1.73,.31-2.28,.09-.05,.03-.11,.06-.17,.07-.49,.05-.97,.14-1.44,.27-.03,0-.06,.01-.09,.01-.15,0-.3-.07-.35-.2-.05-.15,.05-.32,.23-.37,.36-.1,.74-.17,1.11-.23-.27-.25-.45-.53-.55-.71-2.38,.34-4.56,1.53-6.24,3.49-3.26,3.83-5.45,8.59-6.05,9.37-.6,.79-2.68,2.62-1.72,3.87,.78,1.03,1.62,1.25,2.24,1.28,1.03-.32,2.04-.69,3.03-1.09,.65-.27,1.3-.56,1.89-.91,.41-.24,1.12-.67,.85-1.15,.34,.47-.35,.99-.74,1.27-.55,.41-1.18,.76-1.8,1.08-.87,.45-1.76,.87-2.67,1.26,.24,.47,.6,.77,1.06,.93,.15,.4,.49,1.17,1.24,2.32,.87,1.34,.06,2.59,.06,2.59,0,0,2.11-1.24,1.59-4.02,.62,2.29,1.64,2.24,1.64,2.24,0,0-1.02-2.43-.25-3.84,1.34-.44,2.85-.94,3.74-1.24,1.21-.41,2.34-.89,3.43-1.5,1.05-.57,2.16-1.45,2.7-2.41-.43,1.01-1.43,1.93-2.39,2.61-.94,.67-1.96,1.21-3.03,1.7-.24,2.62-.78,12.41,3.73,19.25,2.67,4.05,7.09,7.31,12.91,9.4l-1.14-6.25,2.1,6.58s.03,.01,.05,.02c.05,.21,.1,.42,.16,.63l.1,.3c1.55,6.42,3.61,15.58,3.18,17.79-.04,.2-.08,.41-.13,.62,.52-.1,1.47-.17,2.85,.19,1.32,.35,2.03,1.03,2.38,1.52,.01-.04,.02-.08,.04-.12,1.06-3.66,1.06-13.07,.93-18.99,0,0,.02,0,.03,0-.03-.56-.07-1.12-.12-1.68-.09-.91-.2-1.86-.5-2.74-.29-.84-.99-1.55-1.64-2.22-.45-.46-.91-.91-1.4-1.34,.54,.39,1.05,.8,1.55,1.23,.76,.64,1.58,1.33,1.97,2.2,.67,1.46,.91,3.09,1.14,4.65,2.81,.23,5.8,.26,8.95,.06,2.84-.18,5.4-.44,7.7-.76-1.33-1.97-2.24-4.2-2.37-6.49,.45,2.32,1.7,4.52,3.4,6.34,.81,.86,1.77,1.65,2.92,2.28,5.51,3.04,7.71,3.04,8.36,3.91,1.85,2.47,2.93,6.32,3.54,9.54,.55-.08,1.43-.09,2.64,.23,.73,.19,1.27,.49,1.67,.8,.15-4.11,.18-9.72-.63-11.35ZM.82,27.88c-.52-.28-.34-1.23-.34-1.23,.34,.83,4.17-.92,4.17-.92,0,0-3.31,2.43-3.83,2.15Zm10.34-9.06c-.13,.25-.15,.55,0,.82,.12,.23,.33,.4,.58,.49-.24,.09-.48,.18-.7,.27-.03-.04-.06-.09-.08-.13-.25-.48-.15-1.02,.2-1.46Zm2.18-.03c-.24-.45-.82-.68-1.37-.55,.02,0,.03-.01,.05-.02,.98-.38,2.1-.07,2.49,.68,.11,.21,.15,.44,.13,.67-.43,.01-.89,.06-1.37,.15,.19-.28,.23-.62,.07-.93Zm-1.17,.02c.08,.16,0,.35-.19,.42-.19,.07-.41,0-.49-.15-.08-.16,0-.35,.19-.42,.19-.07,.41,0,.49,.16Zm-1.12,2.27c.41-.42,1.14-.62,1.74-.77,.69-.17,1.47-.25,2.17-.13-1.27,.41-2.62,.55-3.91,.9Zm2.52-3.45c-.45-.09-.94-.08-1.38,.03-.6,.15-1.12,.45-1.51,.86-.45,.49-.58,1.03-.6,1.63-.43-1.23,.42-2.3,1.74-2.81,1.32-.51,2.92,.14,3.4,1.22-.45-.47-.93-.8-1.64-.94Zm1.95,.26c-.02-.06-.05-.12-.08-.17-.3-.57-.84-.97-1.49-1.18-.03-.01-.06-.02-.08-.03-.15-.05-.3-.08-.47-.1-.56-.08-1.17-.02-1.74,.2-.78,.3-1.34,.85-1.6,1.47-.21-1.35,.87-2.05,1.62-1.73,.14-.7,1.22-.84,1.62-.33,.74-.5,1.26-.27,1.58,.48,.96,0,.7,1.17,.64,1.38Z"/>
    </g>
  </g>
</svg>