<?xml version="1.0" encoding="UTF-8"?>
<svg id="Layer_2" data-name="Layer 2" xmlns="http://www.w3.org/2000/svg" viewBox="0 0 122.49 83.72">
  <defs>
    <style>
      .cls-1 {
        fill: #090909;
      }
    </style>
  </defs>
  <g id="Layer_1-2" data-name="Layer 1">
    <path class="cls-1" d="M120.02,30.08c-2.84,.9-6.3,.86-6.48-2.48-.26-4.96-6.48-1.65-9.46-8.87-5.69,17.14,3.71,20.31-1.32,26.27,0,0,6.52,2.73,11.38,1.39,.83-.23,1.72,.14,2.16,.89,.65,1.11,1.04,2.12,1.26,2.95,.3,1.12-.09,2.3-.96,3.06-1.15,1.01-2.68,3.15-2.72,7.4-.07,6.82-4.5,9.53-5.43,10.32,2.03,2.09,4.36,4.43,6.92,4.22,.72-.06,1.4,.31,1.73,.95,1.57,3.12,1.68,4.49,1.68,4.49,0,0-4.43,1.72-7.74,1.39,0,0-4.57-2.38-5.89-5.96-1.32-3.57-9.33-20.31-17.53-22.63-11.91,3.9-20.45,1.72-23.23,.26,1.8,3.24,.2,7.61-1,10.08-.63,1.29-.55,2.8,.24,4.01,1.91,2.94,5.69,8.01,9.56,8.94,1.8,.43,3.16,1.93,3.6,3.73,.31,1.26,.38,2.23,.38,2.23,0,0-6.95,2.58-12.44-.53-1.13-4.99-5.28-11.59-8.15-14.54-.66-.68-.92-1.68-.65-2.59,1.36-4.63-2.62-11.44-5.42-13.11-.94,5.03-8.34,9.86-14.07,11.73-1.51,.49-2.65,1.73-2.99,3.28-.99,4.41,.07,8.19,1.45,9.07,1.65,1.06,2.25,4.76,1.65,6.35-3.51,.99-7.81-.4-8.34-.86-.61-1.54-1.81-2.84-2.43-3.97-.4-.72-.22-1.6,.39-2.17,2.88-2.69,5.56-10.12,5.67-15.06,.02-.95,.48-1.84,1.22-2.43,5.12-4.12,5.35-5.55,5.35-5.55,0,0-2.45-8.14,2.65-14.62-7.68,7.81-24.09,3.11-23.89,19.26-1.59-5.36-.4-10.12,4.7-13.83-6.09,1.72-10.79,8.07-11.51,13.9-1.32-4.43,2.32-12.57,6.75-15.42-7.28,3.64-10.39,8.73-11.71,13.83-.99-3.97,2.45-10.32,5.23-12.11-6.75,1.92-9.79,6.48-10.59,8.2,3.84-11.65,14.82-15.55,19.32-15.62,4.5-.07,6.82,1.99,12.51-2.45,5.69-4.43,12.24-2.65,13.1-2.12,5.09-3.9,11.12-5.36,19.59-2.51,8.47,2.85,15.48-2.58,15.48-2.58,0,0-6.95-1.19-.73-5.49,6.22-4.3-2.55-3.33,3.04-6.82,7.54-4.7-1.52-5.16,3.44-7.21,4.96-2.05,11.25-1.52,9.26-3.84-1.99-2.32,6.55-3.57,14.82-.79,1.52,.4,4.1-.79,4.7-2.12,.4,1.26-.86,3.04-.86,3.04,0,0,1.32-.86,3.31-1.12-1.46,1.52-3.04,4.04-3.04,4.04,0,0,3.31,3.51,4.1,8.87,.54,3.64,2.72,7.52,4.09,10.36,.93,1.93-.06,4.25-2.11,4.89Zm-87.75,10.67c-1.62,.2-3.21,.32-4.81,.72-.79,.21-1.59,.46-2.33,.86-.74,.39-1.43,.91-1.89,1.6,1.37-.9,2.87-1.3,4.41-1.69,.77-.2,1.55-.37,2.33-.6,.78-.22,1.57-.47,2.29-.89Zm7.27-5.13l-.05-.06c-1.85,1.09-3.76,1.9-5.75,2.58-.99,.36-1.99,.74-3.02,.99-1.03,.25-2.09,.4-3.15,.52-2.12,.24-4.25,.57-6.32,1.25-2.04,.71-4.02,1.86-5.39,3.54l.06,.06c1.71-1.3,3.61-2.17,5.6-2.79,1.98-.66,4.06-1.09,6.13-1.63,1.04-.26,2.08-.5,3.13-.69,.52-.11,1.06-.18,1.58-.28,.53-.11,1.06-.2,1.58-.34,2.07-.58,4.08-1.62,5.6-3.15Zm3.29-2.28l.02-.08c-1.54-.6-3.24-.93-4.94-.73-1.7,.19-3.3,.94-4.67,1.89-1.38,.95-2.56,2.12-3.97,2.95-.36,.18-.7,.42-1.1,.53l-.57,.21c-.2,.05-.4,.08-.59,.12-.79,.18-1.6,.07-2.42,0-1.63-.19-3.28-.4-4.96-.4-1.67-.01-3.37,.16-5,.64-3.26,.97-6.08,2.94-8.45,5.22l.05,.06c2.69-1.9,5.52-3.62,8.63-4.47,1.55-.44,3.15-.66,4.77-.71,1.62-.04,3.27,.05,4.92,.09,.82,.03,1.68,.04,2.5-.15,.2-.05,.41-.09,.61-.15l.59-.23c.4-.14,.75-.35,1.13-.54,1.47-.8,2.81-1.79,4.2-2.62,1.38-.85,2.82-1.57,4.4-1.84,1.57-.29,3.2-.12,4.82,.2Zm3.88,17.28c-.14,.95-.61,1.74-1.15,2.47-.55,.72-1.18,1.39-1.86,2-.68,.62-1.41,1.18-2.15,1.74-.75,.54-1.53,1.06-2.32,1.61,1.84-.51,3.56-1.47,5-2.76,.71-.65,1.37-1.39,1.85-2.25,.48-.84,.83-1.85,.63-2.8Zm14.78,3.94c-.5-.94-1.2-1.76-2.01-2.41,.59,.86,1.07,1.75,1.45,2.68,.38,.92,.62,1.89,.77,2.88,.16,.98,.2,1.99,.18,2.99-.04,1.01-.11,2.02-.35,3.03,.53-.9,.83-1.94,.97-2.98,.15-1.05,.14-2.11-.02-3.17M97.33,3.04c1.66,.03,3.27-.06,4.88-.04,1.61,0,3.18,.07,4.78,.51-.66-.52-1.47-.82-2.29-1.02-.82-.21-1.66-.26-2.49-.28-.83,0-1.66,.06-2.48,.2-.82,.14-1.63,.32-2.4,.64Zm-8.96,4.41c1.24-.2,2.46-.37,3.69-.54,1.22-.16,2.45-.31,3.67-.41,1.22-.11,2.45-.15,3.68-.16,1.23,.02,2.45,.08,3.7,.23-1.17-.44-2.41-.72-3.67-.84-1.26-.11-2.52-.11-3.78-.01-2.5,.23-4.98,.75-7.29,1.74Zm10.83,18.01c.05-1.36,.22-2.71,.59-4.01,.37-1.3,.91-2.56,1.58-3.79-.92,1.04-1.68,2.27-2.17,3.6-.51,1.33-.72,2.76-.79,4.17-.05,1.42,.07,2.83,.31,4.21,.2,1.39,.61,2.71,.74,4.1,.18-1.4-.03-2.81-.12-4.17-.11-1.38-.19-2.74-.13-4.1Zm-12.52-14.21c1.03-.33,2.06-.64,3.08-.94,1.02-.29,2.04-.57,3.08-.81,1.03-.24,2.07-.41,3.11-.56,1.05-.12,2.1-.18,3.19-.18-1.04-.3-2.14-.45-3.23-.43-1.09,.02-2.18,.17-3.25,.4-2.12,.51-4.18,1.3-5.98,2.52Zm10.26,24.8c.61-.71,.86-1.71,.87-2.64,.02-.95-.15-1.87-.33-2.76-.39-1.79-.85-3.48-1-5.32-.25,.89-.28,1.84-.2,2.76,.07,.93,.25,1.83,.43,2.72,.19,.88,.38,1.76,.49,2.62,.09,.87,.07,1.74-.25,2.62Zm-14.45-20.68c2.23-.8,4.41-1.62,6.63-2.32,1.11-.36,2.23-.66,3.35-.95,1.13-.26,2.27-.5,3.45-.68-1.18-.13-2.38-.1-3.56,.07-1.18,.17-2.34,.45-3.48,.8-2.26,.74-4.44,1.72-6.39,3.08Zm-.04,3.82c.94-.53,1.89-1.04,2.82-1.54,.94-.49,1.89-.97,2.85-1.4,.96-.44,1.94-.82,2.94-1.17,1-.33,2.02-.6,3.09-.82-1.08-.09-2.19-.01-3.25,.22-1.07,.24-2.11,.6-3.1,1.04-1.97,.92-3.83,2.11-5.35,3.67Zm2.75,1.27c1.01-.57,2.05-1.09,3.1-1.61,1.06-.48,2.13-.94,3.24-1.35-1.18,.11-2.35,.38-3.48,.78-1.12,.41-2.2,.91-3.25,1.48-2.06,1.18-4.01,2.57-5.64,4.3,2.02-1.23,4-2.47,6.03-3.6Zm-17.38,20.36c-.22-.85-.36-1.72-.77-2.49-.29-.82-.81-1.52-1.28-2.22-.5-.68-1.13-1.27-1.73-1.84,.32,.79,.76,1.47,1.06,2.23,.29,.76,.62,1.47,.78,2.24,.24,.75,.33,1.52,.44,2.28,.02,.77,.09,1.53,0,2.3-.12,1.53-.49,3.05-1.05,4.53-.57,1.48-1.29,2.92-2.15,4.36,1.36-1,2.44-2.34,3.27-3.83,.83-1.49,1.38-3.18,1.51-4.93,.1-.87,0-1.75-.09-2.62Zm32.18,7.53c.36-.31,.7-.65,.98-1.05,.28-.39,.52-.83,.59-1.32-.72,.64-1.39,1.18-2.08,1.76-.34,.3-.69,.57-1.02,.89m.66,4.1s1.65,7.34,5.56,12.04c.79-.93,6.22-7.94,6.62-12.51-2.38,1.12-7.54,1.59-12.17,.46Zm8.73-43.51c-.98-.31-2.11-.32-3.16,.13-1.05,.44-1.91,1.38-2.33,2.44-.43,1.06-.5,2.21-.28,3.27,.23,1.05,.74,2.08,1.6,2.7-.3-.99-.38-1.91-.35-2.82,.03-.9,.19-1.77,.5-2.55,.31-.77,.79-1.44,1.47-1.96,.68-.53,1.56-.86,2.55-1.21Zm3.37,1.69c-.4,1.79,.07,2.98,1.79,3.64,.6-.79,.6-3.57-1.79-3.64Zm9.46,15.25c0-.6-.49-1.09-1.09-1.09s-1.09,.49-1.09,1.09,.49,1.09,1.09,1.09,1.09-.49,1.09-1.09Z"/>
  </g>
</svg>