<?xml version="1.0" encoding="UTF-8"?>
<svg id="Layer_2" data-name="Layer 2" xmlns="http://www.w3.org/2000/svg" viewBox="0 0 101.44 79.75">
  <defs>
    <style>
      .cls-1 {
        fill: #fecf0a;
      }
    </style>
  </defs>
  <g id="Layer_1-2" data-name="Layer 1">
    <path class="cls-1" d="M101.43,71.54c-.94-5.13-7.65-7.05-11.26-8.9-3.99-2.06-6.55-9.79-12.98-12.6,0-4.74,4.49-8.98,4.37-13.22,3.81,.25,5.24-2.18,4.62-5.12,3.81-3.43,4.37-9.42-2.62-11.85-6.99-2.43-13.16,.5-13.22,6.99-5.61,3.21-4.77,.34-14.32-.12-9.54-.47-17.78,4.58-22.55,11.88-6.55-1.03-6.18-13.85-5.52-22.55S21.96-4.83,10.17,2C-1.62,8.83-2.18,26.61,3.52,30.07c4.49,2.72,9.9,2.44,13.38-2.31,.54-.74-.46-1.63-1.15-1.02-7.2,6.31-13.25,1.51-12.61-7.05C3.9,9.77,10.07,3.68,16.16,4.34c6.08,.66,8.98,7.58,7.3,18.53-1.68,10.95,.65,14.69,9.08,22.41,2.71,2.43,6.55,8.19,8.84,12.87,1.26,2.25,.47,9.4-2.29,12.77-1.51,1.84-2.49,3.62-3.07,4.85-.36,.77,.2,1.68,1.05,1.66,1.19-.03,2.39-.49,3.7-.84,1.78-.48,4.44,.87,5.73,1.62,.46,.27,1.03,.17,1.38-.22,.41-.46,.37-1.17-.09-1.58-1.07-.95-3.04-2.21-6.78-2.48-.27-.02-.46-.29-.36-.55,2.74-6.86,12.44-9.79,9.11-16.82,6.81,5.12,1.14,13.33-.63,15.59-.46,.58-.48,1.41,0,1.97,.01,.01,.02,.03,.04,.04,.54,.62,1.48,.71,2.21,.32,2.75-1.48,5.32-.8,6.54-.35,.36,.13,.77,0,.98-.32v-.02c.44-.63,0-1.47-.76-1.52-1.25-.07-2.69-.4-4.02-.62-.63-.11-.95-.83-.61-1.37,5.28-8.47,5.61-12.33,1.4-18.23,1.96-.09,10.48-1.31,12.77-5.33,0,0-1.31,3.84-.8,7.86,.51,4.02,5.19,9.73,6.13,14.92,.73,4.05-1.5,6.85-3.67,8.15-.18,.11-.26,.33-.19,.53,.07,.2,.27,.32,.48,.29,1.06-.15,2.3-.64,3.15-1.96,0,.41-.06,1.37-.97,2.78-.08,.12-.06,.27,.05,.37,.1,.09,.26,.1,.37,.01,1.03-.82,1.67-1.86,1.91-2.83,.09,.45,.11,1.05-.1,1.78-.03,.1,.02,.22,.12,.26,.1,.05,.21,.02,.28-.06,6.02-7.83-.64-18.88-.86-23.88,2.01,3.88,7.91,3.28,10.99,5.66,3.09,2.39,6.83,7.25,9.64,7.63,2.19,.29,2.81,2.54,2.45,4.52-.04,.21,.08,.42,.28,.5,.2,.08,.43,0,.54-.19,.63-1.07,.65-2.3,.65-2.3,0,0,.78,.68,1.34,1.62,.08,.13,.24,.19,.39,.15,.15-.05,.24-.19,.23-.35-.14-1.47-1.05-2.58-1.05-2.58,0,0,.87,.47,1.79,2.14,.08,.14,.25,.21,.4,.15,.15-.05,.24-.21,.21-.37Zm-20.38-35.67c-1.23-.64-1.31-1.92-1.31-1.92,2.81-.83,5.02-.33,5.57-.05-1.31,2.01-3.03,2.6-4.26,1.96Zm6.46-8.47c.19,.77-.36,2.31-1.72,2.36-.26,.01-.5,.15-.64,.36l-.05,.07c-.15,.23-.17,.53-.04,.77,.25,.5,.55,1.34,.48,2.07-1.29-.71-3.11-.89-5.97-.02,.24-.98,1.28-1.73,1.9-2.1,.12-.07,.21-.19,.25-.34,.03-.14,.01-.29-.06-.41-.12-.2-.36-.3-.58-.25-2.16,.44-4.1-1.77-2.93-3.89,1.24-2.25,4.49-1.54,5.89,.96,1.43-2.08,3.25-.42,3.46,.42Zm-15.1-2.29c.49-.48,1.42-1,3.09-.82,.41,.05,.71,.42,.66,.83-.05,.41-.42,.7-.83,.66-.6-.07-1.41-.05-1.87,.4-.34,.33-.48,.88-.41,1.64,.06,.63,.32,.74,.41,.78,.44,.18,1.21-.06,1.61-.39,.32-.27,.79-.23,1.05,.09,.27,.32,.23,.79-.09,1.05-.54,.45-1.39,.81-2.22,.81-.32,0-.64-.05-.93-.17-.45-.18-1.21-.69-1.33-2.03-.14-1.53,.39-2.39,.85-2.85Zm.55,27.46c-1.73-4.87,1.92-6.78,2.9-9.17,.98-2.39,.51-4.73-.47-5.89,3.04,2.15,2.39,5.33,.65,7.91-1.73,2.57-3.32,3.18-3.09,7.16Zm8.91-24.95c0,.64-.52,1.16-1.16,1.16s-1.16-.52-1.16-1.16,.52-1.16,1.16-1.16,1.16,.52,1.16,1.16Zm2.74,.43c0-.56,.45-1.01,1.01-1.01s1.01,.45,1.01,1.01-.45,1.01-1.01,1.01-1.01-.45-1.01-1.01Z"/>
  </g>
</svg>