<?xml version="1.0" encoding="UTF-8"?>
<svg id="Layer_2" data-name="Layer 2" xmlns="http://www.w3.org/2000/svg" viewBox="0 0 111.35 68.92">
  <defs>
    <style>
      .cls-1 {
        fill: #fff;
        isolation: isolate;
      }
    </style>
  </defs>
  <g id="Layer_1-2" data-name="Layer 1">
    <path class="cls-1" d="M107.79,7.18c-5.08-.45-1.81,1.81-1.81,1.81-1.81,4.51-9.71,5.19-12.75,3.61-.68-.35-1.63-.71-2.72-1.03,1.46-5.91-3.83-13.32-6.16-11.2-2.44,2.22,.37,5-2.19,10.11-1.75,.07-3.4,.36-4.73,.99-4.51,2.14-16.02,4.18-25.17,1.58-7.44-2.11-17.65-2.88-27.03,1.47-2.52,1.17-4.8,2.77-6.7,4.73,0,0-.02-.01-.02-.02-1.05-.84-2.25-1.56-3.62-2-1.36-.43-2.88-.55-4.32-.25-.38,.07-.74,.17-1.1,.29-1.12-.48-2.34-.64-3.49-.48C3.28,17.15,1.02,19,.01,21.29c-.02,.06,0,.13,.05,.17,.06,.04,.15,.03,.19-.04,.7-.99,1.59-1.81,2.6-2.38,1.01-.56,2.14-.86,3.24-.88,.44,0,.87,.06,1.28,.15-.23,.15-.47,.31-.68,.48-1.11,.9-2.07,1.96-2.73,3.32-.3,.7-.61,1.44-.53,2.53,.04,.57,.33,1.18,.66,1.58,.34,.41,.72,.7,1.1,.91,1.51,.8,2.99,.9,4.47,.66,.74-.13,1.49-.37,2.19-.82,.7-.43,1.34-1.13,1.65-1.98,.32-.84,.32-1.71,.17-2.45-.15-.75-.43-1.4-.75-2.01-.16-.32-.36-.64-.57-.94,1.55-.03,3.13,.58,4.53,1.6-.93,1.23-1.74,2.56-2.36,4.01-.88,2.04-1.51,4.42-1.44,6.98,.23,7.67,7.6,13.99,7.6,13.99,0,0,3.08,2.41,2.33,5.34-.75,2.93,.68,3.99,3.01,6.09,1.52,1.38,2.08,4.97,2.29,7.29,.1,1.09,.87,2,1.94,2.25,1.79,.41,4.04,1.29,6.14,.36,.36-.16,.29-.69-.09-.77-.95-.21-1.7-.7-1.7-.7,0,0,.96-.19,1.81-.56,.42-.18,.33-.79-.12-.87-1.18-.22-2.72-1.17-4.01-3.76-1.88-3.76,1.66-6.85,.23-10.53,3.46-.45,10.61,2.11,21.82,1.88,9.12-.18,11.86-2.71,12.57-3.64-.47,.78-1.52,2.76-1.29,4.47,.3,2.18,3.46,6.77,3.16,10.08-.07,.75-.22,1.4-.42,1.96-.48,1.36,.36,2.83,1.78,3.14l.07,.02c1.67,.37,3.56,.69,4.94,.69,.41,0,.57-.53,.24-.76-.78-.53-1.56-1.28-1.56-1.28,0,0,1.25,.24,2.45-.05,.35-.08,.43-.54,.13-.74-3.46-2.29-2.16-7.38,.06-9.82,2.37-2.6,6.43-7.9,7-11.62,4.51-1.02,6.09-7.79,6.09-7.79,0,0,.9-1.47,7-4.85,10.95-5.87,12.41-13.09,13.65-17.6,1.24-4.51,2.71-6.77-2.37-7.22ZM11.25,24.09c-.25,.6-1.04,1.01-2,1.12-.93,.11-2.03-.07-2.67-.46-.16-.09-.26-.2-.31-.26-.05-.08-.04-.05-.03-.1-.01-.14,.1-.61,.32-1.01,.42-.85,1.12-1.68,1.92-2.31,.52-.41,1.1-.75,1.7-.99,.33,.42,.59,.89,.81,1.38,.45,.97,.59,2.04,.27,2.63ZM28.51,15.25c2.19-.96,4.55-1.56,6.95-1.8,.6-.08,1.21-.07,1.81-.08,.3,0,.6-.02,.91,0l.9,.07c1.2,.06,2.41,.34,3.56,.54l6.8,1.38c2.28,.43,4.59,.74,6.91,.82,2.32,.06,4.65-.13,6.95-.3,2.3-.16,4.6-.19,6.87-.44,2.27-.25,4.53-.54,6.66-1.46l.1,.15c-.91,.76-1.99,1.36-3.11,1.75-1.12,.43-2.28,.71-3.44,.94l-1.75,.29-1.76,.17c-1.17,.1-2.35,.13-3.53,.09-2.35-.06-4.68-.45-7-.62-2.32-.22-4.65-.3-6.99-.42-2.34-.11-4.68-.3-7-.7-2.26-.35-4.47-.44-6.71-.27-4.46,.31-8.88,1.66-12.98,3.84l-.11-.14c1.73-1.62,3.79-2.87,5.98-3.82Zm50.19,31.7c-.43,1.46-1.18,2.8-2.03,4-.84,1.21-1.79,2.27-2.63,3.37-.83,1.1-1.57,2.22-2.03,3.64-.32-1.47,.15-3.06,.83-4.38,.68-1.34,1.54-2.52,2.35-3.66,.81-1.15,1.58-2.27,2.2-3.48,.63-1.21,1.09-2.51,1.51-3.94,.34,1.44,.24,3-.2,4.46Zm12.35-27.18c-1,0-1.81-.81-1.81-1.81s.81-1.81,1.81-1.81,1.81,.81,1.81,1.81-.81,1.81-1.81,1.81Z"/>
  </g>
</svg>