<?xml version="1.0" encoding="UTF-8"?>
<svg id="Layer_2" data-name="Layer 2" xmlns="http://www.w3.org/2000/svg" viewBox="0 0 110.75 78.67">
  <defs>
    <style>
      .cls-1 {
        fill: #d42027;
        isolation: isolate;
      }
    </style>
  </defs>
  <g id="Layer_1-2" data-name="Layer 1">
    <path class="cls-1" d="M99,78.06c-1.41,1.58-5.09-.16-7.86-2.65-2.76-2.49-5.54-5.4-9.33-6.25-3.79-.85-14.76-5.77-18.31-7.9-3.55-2.13-19.07-5-25.26,1.72,2.12-3.45,1.65-7.49,.34-10.11-.04-.08-.13-.12-.21-.09-.08,.03-.13,.11-.11,.2,1.29,5.31-.77,11.09-4.68,13.69-3.89,2.59-8.67,.74-12.86-3.3-.65-.63-1.71-.43-2.04,.38-1.08,2.63-1.03,7.21-5.85,10.37-1.65,1.09-3.83-.58-3.2-2.46,1.41-4.23,3.52-7.71,3.52-7.71,0,0-6.1,4.02-6.47,7.4-.37,3.38,1.5,4.11-.06,5.98C5.08,79.2,.02,75.88,0,74.08c-.01-1.45,4.91-9.15,7.27-12.54,.64-.92,1.66-1.51,2.8-1.66,3.14-.41,6.64-1.88,6.64-1.88,0,0,1.83-3.94,2.98-4.02,1.15-.07,4.11,4.85,7.35,4.05-3.12-1.06-5.51-5.21-4.86-7.23-4.14,1.01-5.4,8.29-12.63,4.93-1.59-.74-1.62-2.91-.06-3.61,.68-.3,1.65-.55,3.01-.68,6.29-.61,11.02-8.48,12.82-10.89,1.81-2.41,9.97-8.64,28.48-4.33,18.83,3.26,18.33-9.1,23.69-11.66,0,0-5.66-1.58-6.97-6.68-1.31-5.1-1.72-14.79-4.85-17.89,9.39,5.97,11.02,4.96,14.94,11.78,3.92,6.82,2.69,11.39,2.69,11.39,0,0,3.14,.18,4.56,1.37,2.91-5.87,5.77-9.41,13.37-7.94,7.6,1.47,8.22,1.55,9.52,.86-3.7,7.52-11.21,12.48-19.43,11.58,2.82,4.89-.74,12.45-3.65,9.6-2.14-.22-3.81-1.21-4.56-2.42-.05-.07-.14-.1-.22-.07s-.12,.12-.09,.2c.6,1.8,2.79,2.97,4.11,2.83,.34,1.08,1.7,1.17,1.7,1.17,0,0-1.85,1.4-5.28-.47,.87,4.08-1.53,8.76-2.21,11.21-.19,.69-.91,1.1-1.61,.87-2.61-.87-3.86-3.22-4.48-7.05-.01-.09-.09-.15-.18-.15-.09,0-.16,.08-.16,.17,.04,3.74,1.03,6.74,3.95,7.72,3.46,1.17,8.24-.31,12.17,1.23,3.93,1.53,8.01,4.4,7.41,6.78-.6,2.38-5.51,1.55-10.34-.77-4.83-2.32-12.69-2.28-16.99-.77,8.21-.49,16.26,7.19,18.9,9.51,2.65,2.32,6.47,5.07,7.91,5.7,1.44,.64,2.71,2.12,1.3,3.71Zm-11.72-41.75c.39,.58,.96,.98,1.07,1.07,.13,.1,.45,.3,1.33,.09,.43-.1,.62-.61,.34-.96-.38-.48-1.08-.96-2.3-1-.42-.02-.68,.45-.45,.8Zm4.87-11.1c2.71-2.28,10.56,.7,13.92-5.31-1.3,1.67-10.86-2.15-13.92,5.31Zm-12.32-5.01c-.41-10.01-5.93-10.27-9.12-14.47,3,5.85,1.59,11.51,9.12,14.47Zm1.03,7.28c-.43,.54-.32,1.34,.25,1.78s1.36,.36,1.79-.19,.32-1.34-.25-1.78-1.36-.36-1.79,.19Zm-16.44,28.79c-.83-1.55-.97-3.44-.66-5.2,.03-.22,.07-.44,.12-.66l.15-.71c.12-.52,.18-1.05,.2-1.58,0-1.07-.2-2.14-.64-3.12-.42-.98-1.03-1.85-1.75-2.6-.73-.73-1.59-1.37-2.56-1.65,.81,.59,1.45,1.33,1.97,2.13,.53,.79,.93,1.64,1.19,2.51,.25,.87,.38,1.76,.3,2.63-.04,.43-.09,.87-.2,1.29l-.17,.71c-.06,.25-.13,.5-.16,.76-.32,2.03-.1,4.29,1.19,6.12,.63,.91,1.56,1.61,2.58,1.95,1.02,.33,2.07,.33,3.03,.12"/>
  </g>
</svg>