<?xml version="1.0" encoding="UTF-8"?>
<svg id="Layer_2" data-name="Layer 2" xmlns="http://www.w3.org/2000/svg" viewBox="0 0 112.62 69.26">
  <defs>
    <style>
      .cls-1 {
        fill: #fff;
        isolation: isolate;
      }
    </style>
  </defs>
  <g id="Layer_1-2" data-name="Layer 1">
    <path class="cls-1" d="M85.26,65.11c-26.71,3.54-49.07-8.3-58.27-11.03-9.21-2.73-22.05-2.12-22.05,5.67s6.88,9.51,6.88,9.51c0,0-9.51-.4-9.51-8.8,0-8.4,5.87-12.24,15.98-12.24s20.94,10.12,44.51,10.12,45.22-4.86,39.05-21.35c0,0-.79,3.63-4.1,6.84-.84,.82-1.93,1.34-3.1,1.48-2.82,.34-5.54,.4-7.84,.32-.45-.01-.81-.35-.86-.8-.05-.44,.23-.86,.66-.97,2.39-.63,4.87-1.57,6.14-2.93-6.68,2.02-15.78-.51-15.78-.51l.5,1.67c.24,.79-.17,1.62-.94,1.92-1.99,.77-5.98,2.17-10.77,3.07-.44,.08-.87-.17-1.01-.59-.15-.42,.04-.88,.43-1.09,4.04-2.11,5.79-4.81,5.52-6.29-2.93-.61-6.78-2.02-6.78-2.02,0,0-1.61,8.2-13.02,9.86-.39,.06-.76-.19-.86-.57-.1-.38,.1-.77,.47-.91,4.99-1.91,7.45-4.14,7.14-8.07l-2.23-.61s-4.05,5.67-9.71,7.79c-4.19,1.57-7.5,3.15-10.04,4.64-.21,.12-.48,.07-.62-.12-.15-.19-.13-.46,.05-.63,1.49-1.44,3.23-2.67,3.23-2.67,0,0-3.12-.18-7.23,1.26-.24,.08-.49-.03-.6-.26-.1-.23-.01-.5,.21-.61,1.76-.95,3.37-1.5,3.37-1.5,0,0-2.12-.04-4.66,.63-.24,.06-.48-.06-.57-.29-.09-.23,.01-.49,.23-.6,2.5-1.27,4.88-1.5,7.53-1.36,3.95,.2,8.6-1.01,9.31-5.67-9.91,4.55-26.51-1.01-26.51-1.01,0,0-5.25-1.21-8.24-5.87-.11-.17-.08-.39,.06-.52,.14-.14,.36-.15,.53-.03,3.2,2.32,5.35,2.06,5.53,1.27,.2-.9,.59-4.63-7.76-5.62-.12-.01-.24,.02-.33,.1-.09,.08-.15,.19-.16,.31-.02,.3-.01,.71,.1,1.13,.03,.1,0,.21-.08,.28-.08,.07-.19,.09-.28,.06C3.61,25.67,1.38,23.11,.13,21.22c-.12-.18-.16-.41-.1-.62,.06-.21,.2-.39,.4-.49,8.61-4.27,18.18-2.72,22.01-1.94,3.84-5.06,6.88-3.74,7.89-3.54,1.82-3.44,7.59-1.92,7.39,1.11C41.76,10.79,58.35-1.56,83.44,.16c25.09,1.72,29.04,20.03,25.6,29.44,8.3,15.38,2.93,31.97-23.77,35.51ZM31.6,15.34c1.13,.04,2.2,.9,2.6,2.19,.12,.39,.16,.77,.15,1.14,1.16-.22,2.04-1.12,2.04-2.2,0-1.24-1.15-2.25-2.58-2.25-.95,0-1.76,.45-2.21,1.11Zm-7.45,7.23c0-.95-.45-1.79-1.15-2.33-1.09,.92-2.87,1.74-4.78,1.93-.02,.13-.04,.27-.04,.41,0,1.65,1.34,2.98,2.98,2.98s2.98-1.34,2.98-2.98Zm3.41,4.6c4.93,.52,10.57-.71,13.05-3.95l-13.05,3.95Zm.55,1.64c4.8,1.21,10.56,.79,13.48-2.06l-13.48,2.06Zm13.64,1.86h-13.63c4.56,1.92,10.32,2.37,13.63,0Z"/>
  </g>
</svg>