<?xml version="1.0" encoding="UTF-8"?>
<svg id="Layer_2" data-name="Layer 2" xmlns="http://www.w3.org/2000/svg" viewBox="0 0 74.5 77.88">
  <defs>
    <style>
      .cls-1 {
        fill: #fff;
        isolation: isolate;
      }
    </style>
  </defs>
  <g id="Layer_1-2" data-name="Layer 1">
    <path class="cls-1" d="M69.63,47.03c2.41-7.03,3.01-27.2-8.63-30.52,6.12,3.31,9.34,15.46,6.12,21.88,.8-9.13-6.42-19.37-13.75-19.17,7.83,2.21,20.2,24.46-4.52,42.56,0,0,17.27-17.77,4.02-31.32,4.72,7.53,2.91,19.67-4.12,25.09,4.02-5.52,4.02-13.95,.1-17.27,1.91,3.81,1.81,16.16-6.83,20.98,5.32-8.43,1.41-11.84,1.41-11.84,0,0,.8,7.13-6.63,11.44,2.81-4.32,2.01-7.93,2.01-7.93,0,0-2.41,8.73-9.64,7.13-2.81,2.41-3.31,7.48-3.41,9.08,.11,.89,1,1.83,1.94,2.59,.27,.22,.02,.64-.3,.51l-1.5-.61c-.59-.24-1.26-.14-1.74,.27-.62,.51-1.5,1.26-2.31,2.06-.33,.32-.86,0-.73-.44,.11-.36,.22-.7,.32-.99,.11-.32-.19-.63-.51-.51-.45,.17-1.05,.38-1.71,.6-.16,.05-.34-.02-.41-.18-.07-.16-.02-.34,.13-.43,2.9-1.79,5.96-4.75,5.53-10.64-1.96,1.36-3.56,5.12-3.56,5.12,0,0-4.82,6.93-4.82,7.83,0,.42,1.45,.29,3.15-.07,.21-.04,.41,.08,.47,.29,.05,.21-.06,.42-.26,.48-2.82,.91-6.1,2.12-7.81,4.7-.09,.14-.27,.19-.42,.12-.15-.07-.23-.23-.19-.39,.23-.96,.54-1.78,.79-2.37,.2-.46-.16-.97-.67-.95-1.06,.05-2.72,.14-4.37,.3-.18,.02-.34-.1-.37-.28-.03-.17,.08-.34,.25-.39,2.74-.69,5.52-1.13,6.01-1.56,.75-.65,2.81-2.71,3.41-3.81s4.12-5.97,1.36-11.95C.61,46.63-1.95,29.36,3.47,20.53c-1.84,1.04-4.08-1.91-.84-3.98,2.91-1.86,1.95-4.87-2.17-4.05-.42,.08-.66-.47-.29-.7,1.3-.78,2.99-1.21,2.99-1.21,0,0-1.81-3.31,.85-6.78-.1,1,1.15,2.56,1.15,2.56,0,0-.6-3.21,2.51-5.72-.05,1.36,.4,3.86,.85,4.22,.2-2.56,3.16-4.47,4.77-4.87,0,0-1.51,2.11-1.41,3.41,1.61-1.71,4.37-1.91,5.37-1.86-1.86,.9-2.66,2.91-2.66,2.91,0,0,3.46,.3,5.07-1.96,2.66,5.57-2.21,6.88-4.42,6.27s-4.92,.8-4.92,.8c0,0,12,7.88,12.25,20.13,4.62,2.06,7.58,3.81,7.58,3.81,0,0-3.01-25.65,22.38-26.25,25.4-.6,25.2,30.72,17.06,39.75ZM6.11,19.46c-.08,.05-.12,.14-.08,.23,.03,.09,.12,.13,.21,.11,2.66-.61,3.59-3.7,1.82-5.5-.06-.06-.16-.07-.23-.03-.07,.05-.11,.14-.08,.22,.79,2.21-.14,4.12-1.64,4.97Zm-.83-9.12c0,.56,.46,1.02,1.02,1.02s1.02-.46,1.02-1.02-.46-1.02-1.02-1.02-1.02,.46-1.02,1.02ZM42.63,47.14c-.09-.87-.37-1.74-.87-2.48-.5-.73-1.22-1.33-2.05-1.55,.42,.76,.72,1.42,.92,2.11,.21,.68,.33,1.37,.4,2.08,.07,.71,.1,1.44,.09,2.18,0,.75-.04,1.51-.11,2.36,.67-.55,1.08-1.34,1.35-2.15,.26-.82,.35-1.69,.26-2.56Zm4.61-5.4c-.65-1.11-1.66-2.04-2.89-2.51-1.21-.48-2.63-.4-3.64,.27,2.42-.05,4.11,1.3,5.14,3.05,.51,.88,.87,1.87,1.05,2.92,.18,1.06,.19,2.16,.13,3.36,1.39-1.95,1.52-4.87,.2-7.1Zm4.39-7.75c-1.08-1.11-2.55-1.79-4.07-1.99-1.52-.21-3.12,.05-4.45,.84-1.34,.77-2.3,2.13-2.5,3.55,.83-1.17,1.87-1.99,3.05-2.43,1.17-.44,2.45-.53,3.68-.37,1.23,.18,2.44,.6,3.46,1.34,1.02,.74,1.8,1.8,2.26,3.16,.23-1.42-.33-3.01-1.43-4.1Zm-.46-12.17c-1.22-.33-2.53-.27-3.72,.03-1.2,.27-2.29,.87-3.18,1.64-.9,.76-1.69,1.53-2.54,2.26-.83,.73-1.84,1.4-2.57,2.34-.72,.93-1.11,2.09-1.3,3.24-.17,1.16-.12,2.36,.32,3.46h.24c.47-1.06,.84-2.03,1.25-2.96,.39-.94,.86-1.79,1.23-2.73,.36-.93,.69-2,1.39-2.8,.68-.81,1.63-1.36,2.63-1.65,1.01-.29,1.98-.45,2.92-.55,.95-.07,1.86,.06,2.74,.23,1.79,.31,3.5,1.24,5.4,2.5l.19-.14c-.65-2.21-2.53-4.17-4.99-4.86Zm10.17-8.02c-2.7-2.18-6.36-3.26-9.96-3.03-1.8,.12-3.56,.64-5.19,1.38-1.64,.72-3.12,1.77-4.35,3.02-1.24,1.24-2.35,2.55-3.44,3.87-1.08,1.32-2.27,2.66-3.06,4.26-.79,1.6-1.13,3.38-1.2,5.14-.04,1.76,.18,3.53,.84,5.15l.24-.03c.26-1.71,.45-3.33,.79-4.91,.31-1.58,.77-3.09,1.21-4.62,.43-1.53,.88-3.16,1.82-4.53,.92-1.37,2.2-2.48,3.62-3.29,1.43-.8,2.9-1.43,4.39-1.95,1.5-.49,3.04-.76,4.59-.93,3.11-.39,6.28-.07,9.62,.68l.11-.22Z"/>
  </g>
</svg>