<?xml version="1.0" encoding="UTF-8"?>
<svg id="Layer_2" data-name="Layer 2" xmlns="http://www.w3.org/2000/svg" viewBox="0 0 114.25 71.95">
  <defs>
    <style>
      .cls-1 {
        fill: #fff;
        isolation: isolate;
      }
    </style>
  </defs>
  <g id="Layer_1-2" data-name="Layer 1">
    <path class="cls-1" d="M102.37,40.76c-10.48,3.21-14.38-4.74-14.38-4.74,0,0,2.87,13.87,8.8,16.35,1,.42,1.75,1.33,1.94,2.45,1.1,6.6,.88,11.46,.55,14.23-.19,1.55-1.39,2.73-2.87,2.8-1.77,.08-4.19,.15-6.17,.05-1.46-.08-2.02-2.12-.79-2.95,.67-.45,1.51-.63,2.22-.7,.89-.08,1.57-.84,1.65-1.77,.35-3.72-.45-6.33-2.59-8.26-2.22-2.01-11.53-7.79-14.45-14.33-.52-1.18-.4-2.54,.24-3.64,2.04-3.52,2.83-7.49,2.83-8.51-1.12,4.74-4.21,9.31-7.26,12.61-2.63,2.84-1.62,11.46,.17,14.88,.48,.93,.39,2.07-.25,2.89-2.07,2.65-5.06,5.02-6.92,7.02-.78,.84-1.81,1.37-2.93,1.46-1.63,.12-3.25,.09-4.6,0-2.04-.13-2.66-3.13-.78-3.97,.18-.08,.36-.13,.55-.15,1.89-.18,4.98-.14,4.98-.14,0,0,.97-2.84,1.8-4.77,.34-.79,.34-1.69,.01-2.48-1.77-4.23-3.68-9.79-3.06-14.62-7.04,4.83-17.52,1.63-18.85,1.4-1.33-.23-3.26-.81-4.9,.86,0,0,.72,11.02-3.18,19.1-.53,1.09-1.56,1.83-2.71,1.97-2.53,.3-4.96-.19-6.42-.6-1.07-.3-1.66-1.6-1.1-2.61,.18-.32,.45-.57,.87-.65,1.5-.27,4.68,.45,4.38-2.76-.3-3.21-.47-10.39,.52-12.2-3.55,4.18-7.65,3.44-9.51,6.15-1.09,1.6-.52,3.52,1.22,4.24,3.11,1.29,1.04,5.43-1.41,4.15-.03-.02-.06-.03-.09-.05-2.75-1.54-2.66-1.4-3.74-1.36-1.07,.05-2.28-1.45-3.13-4.74-.86-3.3-1.33-5.51,1.33-8.04s6.4-4.34,5.58-8c-.82-3.66-3.99-7.77-3.56-10.84-2.96-.9-5.58-1.04-7.21,1.08-1.48,1.93-4.45,2.11-5.95,.33-.23-.28-.21-.71,.04-.97,.56-.56,.44-.99-.27-.76-.86,.27-2.88-.45-2.96-2.12-.09-1.67,1.29-3.3,1.37-4.34,.09-1.04-1.5-3.3-.34-5.47,1.16-2.17,1.93-2.8,1.93-2.8,0,0-2.49-.54-2.49-3.34s4.42-2.03,4.68,1.17c.3,.41,1.02,.13,1.33,0,2.57-1.13,4.9-.5,5.28,.05-.34-3.43,3.38-3.31,4.21-1.85,.77,1.36,.56,2.67,.04,3.57,2.79,.72,6.4-1.58,12.15-1.08,5.75,.5,10.05,6.78,25.21,2.12,15.16-4.65,26.36-.81,32.59,6.05,6.23,6.87,4.12,14.55,12.84,14.55,8.72,0,14.21-14.12,7.33-18.42-8.59-5.36-22.49-2.68-22.49-11.45,0-8.76,4.9-7,6.14-5.92,1.25,1.08-.08,3-.39,4.97-.24,1.51-.02,2.95,4.94,3.52,5.11,.59,14.49,2.87,18.38,9.22,3.97,6.49,.13,18.93-10.35,22.14ZM12.76,13.58c.74-.36,1.89,.06,2.4,1.63,.57-2.71-1.83-3.19-2.4-1.63Zm-5.44,7.59c1.55,0,2.52-.54,2.98-2.11-.86-.48-2.86-.12-2.98,2.11Zm-3.32-6.75c-.34-1.14-1.6-1.81-2.4-1.69,.57,1.27,1.77,1.75,2.4,1.69Zm-2.58,4.52c.11,1.08,.74,2.65,1.77,1.63-.06-1.87-1.03-2.65-1.77-1.63Zm1.89,7.57c-.57-.01-1.23-.05-1.82-.1-.3-.03-.51,.3-.39,.59,.11,.28,.26,.52,.4,.72,.2,.29,.58,.36,.87,.15,.27-.19,.65-.45,1.1-.74,.27-.17,.17-.62-.16-.62Zm6.07-1.17c.6-.36,1.17-.79,1.64-1.34,.47-.54,.85-1.19,.98-1.9-.39,.59-.85,1.07-1.35,1.49-.5,.42-1.04,.79-1.6,1.12-1.13,.66-2.34,1.16-3.61,1.66,1.37,.06,2.73-.34,3.94-1.03Zm-3.4,1.89c1.34,.26,2.75,.07,4.04-.43,.64-.26,1.27-.61,1.8-1.08,.54-.46,1-1.06,1.22-1.74-.47,.52-.98,.93-1.53,1.28-.55,.34-1.13,.63-1.74,.87-1.21,.49-2.47,.8-3.8,1.11Zm7.73-1.02c-.54,.44-1.11,.76-1.7,1.02-.6,.25-1.21,.44-1.84,.58-1.26,.29-2.56,.39-3.91,.49,1.29,.47,2.71,.51,4.06,.22,.67-.16,1.34-.4,1.94-.78,.6-.37,1.14-.88,1.46-1.52Zm41.84,12.99c-1.58,.71-3.17,1.23-4.78,1.62-1.62,.37-3.25,.63-4.9,.74-1.65,.14-3.3,.13-4.97,.04-1.66-.09-3.33-.29-5.03-.52,1.54,.81,3.21,1.33,4.91,1.64,1.71,.32,3.45,.4,5.19,.28,1.73-.14,3.46-.48,5.1-1.09,1.64-.61,3.21-1.48,4.48-2.7Zm53.57-20.26c-.62-1.29-1.66-2.32-2.79-3.14-1.16-.8-2.42-1.4-3.71-1.9-2.58-1-5.28-1.56-7.93-2.2-1.33-.3-2.66-.59-3.95-.99-1.29-.39-2.53-.93-3.45-1.9-.92-.95-1.37-2.37-1.18-3.74,.09-.68,.31-1.36,.69-1.94,.37-.56,.93-1.07,1.63-1.1-.7-.06-1.35,.41-1.77,.98-.44,.57-.73,1.27-.87,1.99-.28,1.46,.14,3.07,1.13,4.18,.97,1.15,2.36,1.71,3.65,2.14,1.32,.43,2.65,.75,3.98,1.07,2.67,.58,5.33,1.15,7.9,2.02,1.29,.43,2.54,.96,3.7,1.68,.58,.36,1.14,.75,1.64,1.23,.5,.48,.95,1.01,1.33,1.61Zm1.37,12.11c-.96,1.98-2.42,3.63-4.14,4.82-1.73,1.19-3.68,2-5.71,2.36-2.02,.38-4.13,.32-6.11-.26-1.98-.58-3.81-1.8-5.08-3.58,.51,.97,1.24,1.82,2.08,2.53,.85,.69,1.82,1.21,2.84,1.59,2.05,.74,4.27,.82,6.39,.44,2.12-.4,4.17-1.27,5.9-2.62,.86-.68,1.65-1.46,2.31-2.34,.64-.9,1.18-1.88,1.53-2.93Zm1.68-7.41c.07-2.09-.56-4.2-1.75-5.85-.26-.44-.62-.8-.96-1.17l-.51-.55-.57-.48c-.75-.66-1.61-1.13-2.44-1.62,.75,.63,1.57,1.16,2.22,1.89l.52,.5,.46,.57c.3,.38,.62,.74,.84,1.18,1.02,1.64,1.57,3.57,1.5,5.51-.04,1.95-.65,3.85-1.56,5.59-.23,.43-.49,.84-.74,1.27-.27,.4-.57,.79-.86,1.19l-.94,1.13c-.34,.35-.69,.7-1.03,1.05,1.6-1.13,2.97-2.62,4.02-4.36,1.05-1.73,1.72-3.75,1.79-5.85Z"/>
  </g>
</svg>